<svg xmlns="http://www.w3.org/2000/svg" data-name="Layer 1" viewBox="0 0 110 137.5" x="0px" y="0px"><path d="M10.66,68.52a1,1,0,0,0-.83.44,1,1,0,0,0-.1.93c.32.81.66,1.61,1,2.4l.57,1.23.42.9c6.11,12.6,15,20.33,27,23.54a9.6,9.6,0,0,0,2.49.31H88.39a7.48,7.48,0,0,0,6.6-4,45.72,45.72,0,0,0,4.94-16.65.54.54,0,0,1,0-.1l.06-.67.06-.69c.09-.94.15-1.9.19-2.88,0-.2,0-.41,0-.62,0-1,.06-2.11,0-3.2a1,1,0,0,0-1-1H96.21A95.51,95.51,0,0,0,91.33,46.3C85.79,30.84,76.7,21.27,65,18.51V14.88a3.15,3.15,0,0,0-6.3,0v3.63c-11.7,2.74-22.39,12.27-31,27.64a118.39,118.39,0,0,0-9.47,22.37ZM93.22,93.38a5.47,5.47,0,0,1-4.83,2.89H41.24a7.76,7.76,0,0,1-2-.24c-9.8-2.61-17.39-8.4-23.05-17.57H97.81A43,43,0,0,1,93.22,93.38Zm5-19.72c0,.44-.06.86-.09,1.29s-.07,1-.12,1.51h-83c-.51-.91-1-1.85-1.47-2.81l-.06-.11c-.47-1-.93-2-1.37-3H98.34C98.34,71.59,98.31,72.63,98.26,73.66ZM70.91,68.52a42,42,0,0,1,18.27,0ZM94.14,68a38.39,38.39,0,0,0-13.88-2.5A47.29,47.29,0,0,0,66,67.75c8.25-18.81,1.82-40.73-.36-47C88.56,27.05,93.34,60.23,94.14,68ZM65,64.75V25.55C67.38,34,70.46,50.13,65,64.75Zm-4.3-49.87a1.15,1.15,0,1,1,2.3,0V68.52h-2.3Zm-2,49.87c-5.46-14.62-2.38-30.76,0-39.2Zm-.58-44c-2.2,6.35-8.69,28.47-.24,47.34a100.25,100.25,0,0,0-21.38-2.57,48.14,48.14,0,0,0-15.92,2.36C23.26,59.47,35,27,58.13,20.7ZM49.42,68.52H25.55C33.49,66.85,42.63,67.53,49.42,68.52Z"/></svg>