<svg xmlns="http://www.w3.org/2000/svg" viewBox="0 0 100 125" x="0px" y="0px"><title>DMX - male simple</title><path d="M50,4.76A45.24,45.24,0,1,0,95.23,50,45.24,45.24,0,0,0,50,4.76ZM26.57,32.5a7.32,7.32,0,1,1-7.32,7.32A7.32,7.32,0,0,1,26.57,32.5Zm2,38.89a7.32,7.32,0,1,1,7.32-7.32A7.32,7.32,0,0,1,28.57,71.39ZM50,84.5a7.32,7.32,0,1,1,7.32-7.32A7.32,7.32,0,0,1,50,84.5ZM71.26,71.39a7.32,7.32,0,1,1,7.32-7.32A7.32,7.32,0,0,1,71.26,71.39Zm2-24.25a7.32,7.32,0,1,1,7.32-7.32A7.32,7.32,0,0,1,73.26,47.14Z"/></svg>