<?xml version="1.0" encoding="UTF-8"?>
<svg id="Layer_1" data-name="Layer 1" xmlns="http://www.w3.org/2000/svg" viewBox="0 0 64 64">
  <defs>
    <style>
      .cls-1 {
        fill: none;
        stroke: #6aafef;
        stroke-miterlimit: 10;
        stroke-width: 4px;
      }

      .cls-2 {
        fill: #6aafef;
        stroke-width: 0px;
      }
    </style>
  </defs>
  <g>
    <path class="cls-1" d="m61.12,47.28c-.58-11.33-4.51-17.53-7.46-21.2-2.48-3.1-7.68-2.85-9.14-2.49-1.4.35-12.53,2.49-12.53,2.49,0,0-11.13-2.14-12.53-2.49-1.46-.36-6.66-.61-9.14,2.49-2.94,3.67-6.87,9.87-7.46,21.2-.58,11.33.51,12.43,3.07,13.52,2.56,1.1,9.07-2.7,12.35-5.7,3.29-3,8.16-5.7,13.7-5.34,5.53-.37,10.41,2.34,13.7,5.34s9.8,6.8,12.35,5.7c2.56-1.1,3.66-2.19,3.07-13.52Z"/>
    <circle class="cls-2" cx="45.52" cy="32.39" r="2.28"/>
    <circle class="cls-2" cx="45.52" cy="43.38" r="2.28"/>
    <circle class="cls-2" cx="40.05" cy="38.1" r="2.28"/>
    <circle class="cls-2" cx="50.99" cy="38.1" r="2.28"/>
    <path class="cls-2" d="m25.05,38.23c0-2.85-2.57-3.44-3.74-3.57-.04-1.12-.42-3.83-3.34-3.83s-3.47,2.7-3.58,3.83c-1.16.12-3.77.71-3.77,3.57s2.58,3.29,3.74,3.34c.04,1.13.44,3.81,3.34,3.81s3.47-2.68,3.58-3.81c1.16-.05,3.77-.47,3.77-3.34Z"/>
  </g>
  <path class="cls-1" d="m32,26.08s-7.3-5.79-6.02-15.31,10.64-4.2,12.68-13"/>
</svg>