<?xml version="1.0" encoding="UTF-8"?>
<svg id="Lamp_uit" data-name="Lamp uit" xmlns="http://www.w3.org/2000/svg" viewBox="0 0 66 64">
  <defs>
    <style>
      .cls-1 {
        fill: #de4646;
        stroke-width: 0px;
      }
    </style>
  </defs>
  <path class="cls-1" d="m41.59,52.9c0,4.74-3.84,8.58-8.58,8.58s-8.58-3.84-8.58-8.58"/>
  <rect class="cls-1" x="-8.29" y="27.77" width="82.58" height="6.33" rx="3.16" ry="3.16" transform="translate(-12.21 29.61) rotate(-41.47)"/>
  <rect class="cls-1" x="-8.29" y="27.77" width="82.58" height="6.33" rx="3.16" ry="3.16" transform="translate(37.25 75.97) rotate(-138.53)"/>
  <g>
    <path class="cls-1" d="m33,23.7l13.01-11.5c-3.41-3.18-7.98-5.15-13.01-5.15s-9.6,1.96-13.01,5.15l13.01,11.5Z"/>
    <path class="cls-1" d="m49.01,37.85c1.17-2.45,2.16-5.11,2.68-7.83.04-.21.06-.42.1-.64.06-.4.14-.79.18-1.19.07-.68.11-1.36.11-2.06,0-1.61-.22-3.16-.59-4.64l-10.49,9.27,8.01,7.08Z"/>
    <path class="cls-1" d="m14.51,21.49c-.37,1.49-.59,3.04-.59,4.64,0,.7.04,1.38.11,2.06.04.4.12.79.18,1.19.04.21.06.43.1.64.52,2.72,1.51,5.39,2.68,7.83l8.01-7.08-10.49-9.27Z"/>
    <path class="cls-1" d="m33,37.84l-10.38,9.17c1.07,1.41,1.8,2.24,1.8,2.24h17.17s.73-.83,1.8-2.24l-10.38-9.17Z"/>
  </g>
</svg>