<svg xmlns:rdf="http://www.w3.org/1999/02/22-rdf-syntax-ns#" xmlns="http://www.w3.org/2000/svg" xmlns:cc="http://creativecommons.org/ns#" xmlns:dc="http://purl.org/dc/elements/1.1/" version="1.1" x="0px" y="0px" viewBox="0 0 100 125"><g transform="translate(0,-952.36218)"><path style="baseline-shift:baseline;block-progression:tb;color:#000000;direction:ltr;text-indent:0;enable-background:accumulate;text-transform:none;" fill="#000" d="m49.97,959.86c14.078,0,25.5,11.592,25.5,25.812,0,7.1356-1.7335,11.255-3.6562,14.625-1.9228,3.3697-3.9343,5.9175-4.875,10.438a1.0051,1.0051,0,1,1,-1.9688,-0.4063c1.0265-4.9322,3.288-7.812,5.125-11.031,1.8369-3.2192,3.375-6.8015,3.375-13.625,0-13.153-10.516-23.812-23.5-23.812-8.7136,0-16.316,4.8104-20.375,11.938a1.0001,1.0001,0,1,1,-1.7188,-1c4.3997-7.7248,12.646-12.938,22.094-12.938zm-33.562,7a1.0001,1.0001,0,0,1,0.59375,0.3125l31.188,31.156,36.156,36.156a1.0001,1.0001,0,1,1,-1.4062,1.4062l-16.969-16.969-3.5625,18.469c-0.33548,1.741-2.0593,2.8125-3.875,2.8125h-0.40625v0.625c0,2.1318-1.4619,4.0313-3.5,4.0313h-9.3125c-2.0382,0-3.5-1.8995-3.5-4.0313v-0.625h-0.40625c-1.8157,0-3.5087-1.071-3.8438-2.8125l-3.9375-20.5a1.0001,1.0001,0,0,1,-0.0312,-0.062v-0.031a1.0001,1.0001,0,0,1,-0.0625,-0.375c0-7.4069-2.1046-10.658-4.375-14.406-2.2705-3.748-4.6875-7.9441-4.6875-16.344,0-2.4944,0.37614-4.903,1.0312-7.1875l-9.9062-9.9062a1.0001,1.0001,0,0,1,0.8125,-1.7188zm10.719,13.25c-0.42488,1.7888-0.65625,3.6385-0.65625,5.5625,0,8.0322,2.1483,11.585,4.4062,15.313,2.1484,3.5464,4.3452,7.3633,4.5625,14.438h27l-15.656-15.656-19.656-19.656zm37.125,37.313-1.1562,0-8.8438,0-18.531,0,1.0625,5.4062a1.0001,1.0001,0,0,1,0.0312,0h18.25a1.0001,1.0001,0,0,1,0.0937,0,1.0011,1.0011,0,0,1,-0.0937,2h-17.906l1.0625,5.4688h10.969a1.0001,1.0001,0,0,1,0.125,0,1.002,1.002,0,0,1,-0.125,2h-10.562l0.90625,4.7187c0.0894,0.4645,0.92385,1.1875,1.875,1.1875h1.4062,11.438,4.2812c0.95114,0,1.8166-0.7225,1.9062-1.1875l3.7188-19.344a1.0021,1.0021,0,0,1,0.0937,-0.25zm-8.125,22.781-1.875,0-10.438,0,0,0.625c0,1.2568,0.77111,2.0313,1.5,2.0313h9.3125c0.72872,0,1.5-0.7745,1.5-2.0313v-0.625z"/></g></svg>