<svg xmlns="http://www.w3.org/2000/svg" xmlns:xlink="http://www.w3.org/1999/xlink" xml:space="preserve" version="1.1" shape-rendering="geometricPrecision" text-rendering="geometricPrecision" image-rendering="optimizeQuality" fill-rule="evenodd" clip-rule="evenodd" viewBox="0 0 5000000 6250000" x="0px" y="0px"><rect fill="none" width="5000000" height="5000000"/><g><path fill="black" fill-rule="nonzero" d="M3386000 2479000l1000 -43000c0,-243000 -98000,-464000 -258000,-623000 -160000,-160000 -380000,-259000 -624000,-259000 -243000,0 -464000,99000 -624000,259000 -159000,159000 -258000,380000 -258000,623000 0,54000 5000,107000 14000,157000 9000,52000 23000,103000 41000,151000 2000,5000 3000,11000 3000,16000 63000,174000 152000,304000 235000,427000 120000,176000 229000,337000 249000,583000l667000 0c20000,-246000 129000,-407000 249000,-583000 123000,-181000 257000,-378000 305000,-708000zm825000 695000l-172000 298000 -541000 -377000 123000 -214000 590000 293000zm168000 -961000l0 343000 -657000 -56000 0 -247000 657000 -40000zm-335000 -918000l172000 298000 -597000 280000 -124000 -214000 549000 -364000zm-749000 -627000l298000 172000 -377000 541000 -214000 -123000 293000 -590000zm-2339000 2795000l-172000 -298000 597000 -280000 124000 214000 -549000 364000zm-335000 -917000l0 -344000 657000 56000 0 247000 -657000 41000zm168000 -962000l172000 -298000 541000 377000 -123000 214000 -590000 -293000zm627000 -749000l298000 -172000 280000 597000 -214000 124000 -364000 -549000zm917000 -335000l344000 0 -56000 657000 -246000 0 -42000 -657000zm519000 3789000c-2000,4000 -5000,8000 -9000,11000l-235000 192000c-6000,6000 -14000,8000 -21000,8000l-148000 0c-8000,0 -16000,-3000 -22000,-8000l-249000 -192000c-5000,-3000 -8000,-7000 -10000,-11000 -5000,-5000 -9000,-13000 -9000,-21000l0 -141000 0 -1000 0 -1000 0 -140000 0 -1000 0 0 0 -128000 -25000 0c-23000,0 -42000,-18000 -42000,-41000 -10000,-246000 -118000,-405000 -236000,-580000 -89000,-130000 -183000,-269000 -250000,-457000 -2000,-5000 -3000,-11000 -3000,-16000 -17000,-50000 -31000,-101000 -41000,-154000 -10000,-56000 -15000,-114000 -15000,-172000 0,-267000 108000,-509000 284000,-684000 175000,-175000 417000,-284000 684000,-284000 267000,0 510000,109000 685000,284000 175000,175000 283000,417000 283000,684000l0 26000 -1000 28000c-51000,349000 -192000,556000 -321000,745000 -118000,174000 -225000,333000 -235000,576000l0 2000c0,24000 -20000,43000 -43000,43000l-11000 0 0 128000 0 0 0 1000 0 140000 0 1000 0 1000 0 141000c0,8000 -4000,16000 -10000,21000zm-125000 18000l-439000 0 81000 63000 282000 0 76000 -63000zm-521000 -152000l0 84000 598000 0 0 -84000 -598000 0zm0 -58000l598000 0 0 -84000 -598000 0 0 84000zm598000 -226000l-598000 0 0 85000 598000 0 0 -85000z"/></g>a</svg>