<?xml version="1.0" encoding="UTF-8"?>
<svg id="Lamp_aan" data-name="Lamp aan" xmlns="http://www.w3.org/2000/svg" viewBox="0 0 66 64">
  <defs>
    <style>
      .cls-1 {
        fill: #37a835;
        stroke-width: 0px;
      }
    </style>
  </defs>
  <path class="cls-1" d="m41.59,50.63c0,4.74-3.84,8.58-8.58,8.58s-8.58-3.84-8.58-8.58"/>
  <path class="cls-1" d="m51.79,27.11c.06-.4.14-.79.18-1.19.07-.68.11-1.36.11-2.06,0-10.54-8.54-19.09-19.09-19.09S13.92,13.33,13.92,23.87c0,.7.04,1.38.11,2.06.04.4.12.79.18,1.19.04.21.06.43.1.64,1.89,9.95,10.11,19.24,10.11,19.24h17.17s8.22-9.29,10.11-19.24c.04-.21.06-.42.1-.64Z"/>
  <rect class="cls-1" x=".06" y="23.2" width="9.93" height="4.32" rx="2.1" ry="2.1"/>
  <rect class="cls-1" x="56.02" y="23.2" width="9.93" height="4.32" rx="2.1" ry="2.1"/>
  <rect class="cls-1" x="3.74" y="9.32" width="9.93" height="4.32" rx="2.1" ry="2.1" transform="translate(6.84 -2.81) rotate(29.74)"/>
  <rect class="cls-1" x="52.34" y="37.08" width="9.93" height="4.32" rx="2.1" ry="2.1" transform="translate(27.01 -23.25) rotate(29.74)"/>
  <rect class="cls-1" x="52.34" y="9.32" width="9.93" height="4.32" rx="2.1" ry="2.1" transform="translate(112.75 -6.97) rotate(150.26)"/>
  <rect class="cls-1" x="3.74" y="37.08" width="9.93" height="4.32" rx="2.1" ry="2.1" transform="translate(35.73 68.99) rotate(150.26)"/>
</svg>