<svg xmlns="http://www.w3.org/2000/svg" xmlns:xlink="http://www.w3.org/1999/xlink" width="500" zoomAndPan="magnify" viewBox="0 0 375 374.999991" height="500" preserveAspectRatio="xMidYMid meet" version="1.0"><defs><clipPath id="2758f665b6"><path d="M 0 0 L 156.96875 0 L 156.96875 194.199219 L 0 194.199219 Z M 0 0 " clip-rule="nonzero"/></clipPath><clipPath id="a2de3ad084"><path d="M 0 0 L 156.75 0 L 156.75 194.25 L 0 194.25 Z M 0 0 " clip-rule="nonzero"/></clipPath><clipPath id="c59bd0c4d9"><path d="M 0 191.019531 L 156.96875 191.019531 L 156.96875 246.941406 L 0 246.941406 Z M 0 191.019531 " clip-rule="nonzero"/></clipPath><clipPath id="7431d19a2c"><path d="M 0 191.019531 L 156.75 191.019531 L 156.75 247.269531 L 0 247.269531 Z M 0 191.019531 " clip-rule="nonzero"/></clipPath><clipPath id="8b8a728873"><path d="M 0 244.589844 L 205.558594 244.589844 L 205.558594 375 L 0 375 Z M 0 244.589844 " clip-rule="nonzero"/></clipPath><clipPath id="58f4d82e35"><path d="M 0 244.589844 L 205.5 244.589844 L 205.5 375 L 0 375 Z M 0 244.589844 " clip-rule="nonzero"/></clipPath><clipPath id="7cdac0bf9b"><path d="M 202.230469 211.332031 L 375 211.332031 L 375 374.980469 L 202.230469 374.980469 Z M 202.230469 211.332031 " clip-rule="nonzero"/></clipPath><clipPath id="9ced08f0b6"><path d="M 202.234375 211.332031 L 374.722656 211.332031 L 374.722656 374.832031 L 202.234375 374.832031 Z M 202.234375 211.332031 " clip-rule="nonzero"/></clipPath><clipPath id="42eef4cc03"><path d="M 293.695312 186.902344 L 375 186.902344 L 375 214.332031 L 293.695312 214.332031 Z M 293.695312 186.902344 " clip-rule="nonzero"/></clipPath><clipPath id="ff96222c23"><path d="M 293.703125 186.902344 L 374.691406 186.902344 L 374.691406 214.652344 L 293.703125 214.652344 Z M 293.703125 186.902344 " clip-rule="nonzero"/></clipPath><clipPath id="20276bdb99"><path d="M 153.878906 211.332031 L 205.558594 211.332031 L 205.558594 246.941406 L 153.878906 246.941406 Z M 153.878906 211.332031 " clip-rule="nonzero"/></clipPath><clipPath id="f8c20362af"><path d="M 153.886719 211.332031 L 205.621094 211.332031 L 205.621094 246.582031 L 153.886719 246.582031 Z M 153.886719 211.332031 " clip-rule="nonzero"/></clipPath><clipPath id="dc63306b73"><path d="M 59.984375 200.480469 L 96.734375 200.480469 L 96.734375 237.230469 L 59.984375 237.230469 Z M 59.984375 200.480469 " clip-rule="nonzero"/></clipPath><clipPath id="c3ab0fc0ad"><path d="M 59.984375 200.480469 L 61 200.480469 L 61 201 L 59.984375 201 Z M 59.984375 200.480469 " clip-rule="nonzero"/></clipPath><clipPath id="16640478b9"><path d="M 59.984375 200.480469 L 96.734375 200.480469 L 96.734375 237.230469 L 59.984375 237.230469 Z M 59.984375 200.480469 " clip-rule="nonzero"/></clipPath><clipPath id="89391ad3c5"><path d="M 275.199219 274.65625 L 311.949219 274.65625 L 311.949219 311.40625 L 275.199219 311.40625 Z M 275.199219 274.65625 " clip-rule="nonzero"/></clipPath><clipPath id="84b438d6c8"><path d="M 275.199219 274.65625 L 276 274.65625 L 276 275 L 275.199219 275 Z M 275.199219 274.65625 " clip-rule="nonzero"/></clipPath><clipPath id="42d9c0d1a7"><path d="M 275.199219 274.65625 L 311.949219 274.65625 L 311.949219 311.40625 L 275.199219 311.40625 Z M 275.199219 274.65625 " clip-rule="nonzero"/></clipPath><clipPath id="955782f0e5"><path d="M 84.28125 291.292969 L 121.03125 291.292969 L 121.03125 328.042969 L 84.28125 328.042969 Z M 84.28125 291.292969 " clip-rule="nonzero"/></clipPath><clipPath id="cce3a1bbf9"><path d="M 84.28125 291.292969 L 85 291.292969 L 85 292 L 84.28125 292 Z M 84.28125 291.292969 " clip-rule="nonzero"/></clipPath><clipPath id="da84805fc1"><path d="M 84.28125 291.292969 L 121.03125 291.292969 L 121.03125 328.042969 L 84.28125 328.042969 Z M 84.28125 291.292969 " clip-rule="nonzero"/></clipPath><clipPath id="bb37bb9dc2"><path d="M 59.984375 19 L 96.734375 19 L 96.734375 55.75 L 59.984375 55.75 Z M 59.984375 19 " clip-rule="nonzero"/></clipPath><clipPath id="cc97fef9a3"><path d="M 59.984375 19 L 61 19 L 61 20 L 59.984375 20 Z M 59.984375 19 " clip-rule="nonzero"/></clipPath><clipPath id="3cc8cc1a5d"><path d="M 59.984375 19 L 96.734375 19 L 96.734375 55.75 L 59.984375 55.75 Z M 59.984375 19 " clip-rule="nonzero"/></clipPath><clipPath id="0c319a8c18"><path d="M 18.09375 103.019531 L 54.84375 103.019531 L 54.84375 139.769531 L 18.09375 139.769531 Z M 18.09375 103.019531 " clip-rule="nonzero"/></clipPath><clipPath id="ed346a5bd2"><path d="M 18.09375 103.019531 L 19 103.019531 L 19 104 L 18.09375 104 Z M 18.09375 103.019531 " clip-rule="nonzero"/></clipPath><clipPath id="db01977cfd"><path d="M 18.09375 103.019531 L 54.84375 103.019531 L 54.84375 139.769531 L 18.09375 139.769531 Z M 18.09375 103.019531 " clip-rule="nonzero"/></clipPath><clipPath id="8f55793913"><path d="M 101.875 103.019531 L 138.625 103.019531 L 138.625 139.769531 L 101.875 139.769531 Z M 101.875 103.019531 " clip-rule="nonzero"/></clipPath><clipPath id="797dcddd16"><path d="M 101.875 103.019531 L 103 103.019531 L 103 104 L 101.875 104 Z M 101.875 103.019531 " clip-rule="nonzero"/></clipPath><clipPath id="049f8c525e"><path d="M 101.875 103.019531 L 138.625 103.019531 L 138.625 139.769531 L 101.875 139.769531 Z M 101.875 103.019531 " clip-rule="nonzero"/></clipPath><clipPath id="f20e55e0fe"><path d="M 59.984375 140.019531 L 96.734375 140.019531 L 96.734375 176.769531 L 59.984375 176.769531 Z M 59.984375 140.019531 " clip-rule="nonzero"/></clipPath><clipPath id="2f516cdf8d"><path d="M 59.984375 140.019531 L 61 140.019531 L 61 141 L 59.984375 141 Z M 59.984375 140.019531 " clip-rule="nonzero"/></clipPath><clipPath id="5c17975208"><path d="M 59.984375 140.019531 L 96.734375 140.019531 L 96.734375 176.769531 L 59.984375 176.769531 Z M 59.984375 140.019531 " clip-rule="nonzero"/></clipPath></defs><g clip-path="url(#2758f665b6)"><path fill="#ffffff" d="M 0 0 L 156.96875 0 L 156.96875 194.199219 L 0 194.199219 Z M 0 0 " fill-opacity="1" fill-rule="nonzero"/></g><g clip-path="url(#a2de3ad084)"><path stroke-linecap="butt" transform="matrix(0.748992, 0, 0, 0.750226, 0.0000512289, 0.000000000000021316)" fill="none" stroke-linejoin="miter" d="M -0.0000683971 -0.000000000000028413 L 209.281199 -0.000000000000028413 L 209.281199 258.92191 L -0.0000683971 258.92191 Z M -0.0000683971 -0.000000000000028413 " stroke="#000000" stroke-width="8" stroke-opacity="1" stroke-miterlimit="4"/></g><g clip-path="url(#c59bd0c4d9)"><path fill="#ffffff" d="M 0 191.019531 L 156.96875 191.019531 L 156.96875 246.941406 L 0 246.941406 Z M 0 191.019531 " fill-opacity="1" fill-rule="nonzero"/></g><g clip-path="url(#7431d19a2c)"><path stroke-linecap="butt" transform="matrix(0.748992, 0, 0, 0.754401, 0.0000816659, 191.017838)" fill="none" stroke-linejoin="miter" d="M -0.000109034 0.00224469 L 209.281179 0.00224469 L 209.281179 74.56475 L -0.000109034 74.56475 Z M -0.000109034 0.00224469 " stroke="#000000" stroke-width="8" stroke-opacity="1" stroke-miterlimit="4"/></g><g clip-path="url(#8b8a728873)"><path fill="#ffffff" d="M 0 244.589844 L 205.558594 244.589844 L 205.558594 375 L 0 375 Z M 0 244.589844 " fill-opacity="1" fill-rule="nonzero"/></g><g clip-path="url(#58f4d82e35)"><path stroke-linecap="butt" transform="matrix(0.749829, 0, 0, 0.750539, 0.0000045, 244.588959)" fill="none" stroke-linejoin="miter" d="M -0.00000600137 0.00117863 L 274.062507 0.00117863 L 274.062507 173.870985 L -0.00000600137 173.870985 Z M -0.00000600137 0.00117863 " stroke="#000000" stroke-width="8" stroke-opacity="1" stroke-miterlimit="4"/></g><g clip-path="url(#7cdac0bf9b)"><path fill="#ffffff" d="M 202.230469 211.332031 L 375 211.332031 L 375 374.980469 L 202.230469 374.980469 Z M 202.230469 211.332031 " fill-opacity="1" fill-rule="nonzero"/></g><g clip-path="url(#9ced08f0b6)"><path stroke-linecap="butt" transform="matrix(0.74883, 0, 0, 0.749355, 202.235674, 211.330225)" fill="none" stroke-linejoin="miter" d="M -0.00173527 0.00241104 L 230.342006 0.00241104 L 230.342006 218.189913 L -0.00173527 218.189913 Z M -0.00173527 0.00241104 " stroke="#000000" stroke-width="8" stroke-opacity="1" stroke-miterlimit="4"/></g><g clip-path="url(#42eef4cc03)"><path fill="#ffffff" d="M 293.695312 186.902344 L 375 186.902344 L 375 214.332031 L 293.695312 214.332031 Z M 293.695312 186.902344 " fill-opacity="1" fill-rule="nonzero"/></g><g clip-path="url(#ff96222c23)"><path stroke-linecap="butt" transform="matrix(0.747297, 0, 0, 0.758974, 293.702534, 186.901908)" fill="none" stroke-linejoin="miter" d="M 0.000790832 0.00057449 L 108.375746 0.00057449 L 108.375746 36.563075 L 0.000790832 36.563075 Z M 0.000790832 0.00057449 " stroke="#000000" stroke-width="8" stroke-opacity="1" stroke-miterlimit="4"/></g><g clip-path="url(#20276bdb99)"><path fill="#ffffff" d="M 153.878906 211.332031 L 205.558594 211.332031 L 205.558594 246.941406 L 153.878906 246.941406 Z M 153.878906 211.332031 " fill-opacity="1" fill-rule="nonzero"/></g><g clip-path="url(#f8c20362af)"><path stroke-linecap="butt" transform="matrix(0.75102, 0, 0, 0.742594, 153.88479, 211.330225)" fill="none" stroke-linejoin="miter" d="M 0.00256765 0.002433 L 68.888017 0.002433 L 68.888017 47.471187 L 0.00256765 47.471187 Z M 0.00256765 0.002433 " stroke="#000000" stroke-width="8" stroke-opacity="1" stroke-miterlimit="4"/></g><g clip-path="url(#dc63306b73)"><path stroke-linecap="butt" transform="matrix(0.574219, 0, 0, 0.574219, 59.984638, 200.480876)" fill="none" stroke-linejoin="miter" d="M 61.673016 31.999292 C 61.673016 32.972082 61.625397 33.938068 61.530159 34.910857 C 61.434921 35.876844 61.292063 36.836028 61.101587 37.788409 C 60.911111 38.74079 60.673016 39.679565 60.394104 40.611538 C 60.10839 41.543511 59.781859 42.455076 59.414512 43.353035 C 59.040363 44.250994 58.625397 45.128545 58.169614 45.985688 C 57.707029 46.842831 57.21043 47.672763 56.673015 48.482287 C 56.128798 49.291811 55.550566 50.074124 54.938321 50.822423 C 54.319274 51.570723 53.666212 52.291811 52.979138 52.978886 C 52.292063 53.665961 51.570974 54.319022 50.822675 54.93807 C 50.074375 55.550315 49.292062 56.128546 48.482539 56.672764 C 47.673015 57.210179 46.843083 57.706777 45.98594 58.169362 C 45.128797 58.625145 44.251246 59.040111 43.353287 59.414261 C 42.455327 59.781607 41.543763 60.108138 40.61179 60.393852 C 39.679817 60.672764 38.741041 60.910859 37.78866 61.101335 C 36.836279 61.291812 35.877095 61.434669 34.911109 61.529907 C 33.93832 61.625145 32.972333 61.672764 31.999544 61.672764 C 31.026755 61.672764 30.060768 61.625145 29.094782 61.529907 C 28.121993 61.434669 27.162809 61.291812 26.210428 61.101335 C 25.258047 60.910859 24.319271 60.672764 23.387299 60.393852 C 22.455326 60.108138 21.543761 59.781607 20.645802 59.414261 C 19.747843 59.040111 18.870291 58.625145 18.013149 58.169362 C 17.156006 57.706777 16.326074 57.210179 15.51655 56.672764 C 14.707026 56.128546 13.931516 55.550315 13.176413 54.93807 C 12.428114 54.319022 11.707026 53.665961 11.019951 52.978886 C 10.332876 52.291811 9.679815 51.570723 9.06757 50.822423 C 8.448522 50.074124 7.870291 49.291811 7.332876 48.482287 C 6.788658 47.672763 6.292059 46.842831 5.836277 45.985688 C 5.373692 45.128545 4.958726 44.250994 4.591379 43.353035 C 4.217229 42.455076 3.890698 41.543511 3.604984 40.611538 C 3.326073 39.679565 3.087977 38.74079 2.897501 37.788409 C 2.713828 36.836028 2.57097 35.876844 2.475732 34.910857 C 2.380494 33.938068 2.332875 32.972082 2.332875 31.999292 C 2.332875 31.026503 2.380494 30.060517 2.475732 29.09453 C 2.57097 28.121741 2.713828 27.162557 2.897501 26.210176 C 3.087977 25.257795 3.326073 24.31902 3.604984 23.387047 C 3.890698 22.455074 4.217229 21.543509 4.591379 20.64555 C 4.958726 19.747591 5.373692 18.87004 5.836277 18.012897 C 6.292059 17.155754 6.788658 16.325822 7.332876 15.516298 C 7.870291 14.706774 8.448522 13.931264 9.06757 13.176162 C 9.679815 12.427862 10.332876 11.706774 11.019951 11.019699 C 11.707026 10.332624 12.428114 9.679563 13.176413 9.067318 C 13.931516 8.44827 14.707026 7.870039 15.51655 7.332624 C 16.326074 6.788406 17.156006 6.291808 18.013149 5.836025 C 18.870291 5.37344 19.747843 4.958474 20.645802 4.591127 C 21.543761 4.216977 22.455326 3.890447 23.387299 3.604732 C 24.319271 3.325821 25.258047 3.087726 26.210428 2.897249 C 27.162809 2.713576 28.121993 2.570719 29.094782 2.475481 C 30.060768 2.380243 31.026755 2.332624 31.999544 2.332624 C 32.972333 2.332624 33.93832 2.380243 34.911109 2.475481 C 35.877095 2.570719 36.836279 2.713576 37.78866 2.897249 C 38.741041 3.087726 39.679817 3.325821 40.61179 3.604732 C 41.543763 3.890447 42.455327 4.216977 43.353287 4.591127 C 44.251246 4.958474 45.128797 5.37344 45.98594 5.836025 C 46.843083 6.291808 47.673015 6.788406 48.482539 7.332624 C 49.292062 7.870039 50.074375 8.44827 50.822675 9.067318 C 51.570974 9.679563 52.292063 10.332624 52.979138 11.019699 C 53.666212 11.706774 54.319274 12.427862 54.938321 13.176162 C 55.550566 13.931264 56.128798 14.706774 56.673015 15.516298 C 57.21043 16.325822 57.707029 17.155754 58.169614 18.012897 C 58.625397 18.87004 59.040363 19.747591 59.414512 20.64555 C 59.781859 21.543509 60.10839 22.455074 60.394104 23.387047 C 60.673016 24.31902 60.911111 25.257795 61.101587 26.210176 C 61.292063 27.162557 61.434921 28.121741 61.530159 29.09453 C 61.625397 30.060517 61.673016 31.026503 61.673016 31.999292 Z M 61.673016 31.999292 " stroke="#6aafef" stroke-width="4" stroke-opacity="1" stroke-miterlimit="10"/></g><g clip-path="url(#c3ab0fc0ad)"><path fill="#6aafef" d="M 60.605469 200.519531 C 60.605469 200.546875 60.5 200.5625 60.292969 200.5625 C 60.089844 200.5625 59.984375 200.546875 59.984375 200.519531 C 59.984375 200.496094 60.089844 200.480469 60.292969 200.480469 C 60.5 200.480469 60.605469 200.496094 60.605469 200.519531 Z M 60.605469 200.519531 " fill-opacity="1" fill-rule="nonzero"/></g><g clip-path="url(#16640478b9)"><path stroke-linecap="butt" transform="matrix(0.574219, 0, 0, 0.574219, 59.984638, 200.480876)" fill="none" stroke-linejoin="miter" d="M 52.128797 11.870039 L 11.870291 52.128546 " stroke="#6aafef" stroke-width="4" stroke-opacity="1" stroke-miterlimit="10"/><path stroke-linecap="butt" transform="matrix(0.574219, 0, 0, 0.574219, 59.984638, 200.480876)" fill="none" stroke-linejoin="miter" d="M 52.128797 52.128546 L 11.870291 11.870039 " stroke="#6aafef" stroke-width="4" stroke-opacity="1" stroke-miterlimit="10"/></g><g name="light-7" clip-path="url(#89391ad3c5)"><path stroke-linecap="butt" transform="matrix(0.574219, 0, 0, 0.574219, 275.197515, 274.657189)" fill="none" stroke-linejoin="miter" d="M 61.669638 31.998367 C 61.669638 32.971156 61.622019 33.943945 61.526781 34.909932 C 61.431543 35.875918 61.288686 36.835102 61.098209 37.787483 C 60.907733 38.739864 60.676441 39.685442 60.390726 40.610612 C 60.111815 41.542585 59.785284 42.45415 59.411134 43.352109 C 59.036985 44.250068 58.622019 45.12762 58.166236 45.984763 C 57.710454 46.841905 57.207053 47.67864 56.669638 48.481361 C 56.132223 49.290885 55.553991 50.073198 54.934944 50.821498 C 54.315896 51.5766 53.669637 52.290885 52.982563 52.97796 C 52.295488 53.665035 51.574399 54.318096 50.819297 54.937144 C 50.070998 55.549389 49.288685 56.12762 48.485964 56.671838 C 47.67644 57.209253 46.846508 57.705852 45.989365 58.168437 C 45.132222 58.624219 44.254671 59.039185 43.356711 59.413335 C 42.458752 59.780682 41.540385 60.107213 40.615215 60.392927 C 39.683242 60.671838 38.744466 60.909934 37.785282 61.10041 C 36.832901 61.290886 35.873718 61.433743 34.907731 61.528981 C 33.941745 61.624219 32.968956 61.671839 32.002969 61.671839 C 31.03018 61.671839 30.057391 61.624219 29.091404 61.528981 C 28.125418 61.433743 27.166234 61.290886 26.213853 61.10041 C 25.261472 60.909934 24.315894 60.671838 23.383921 60.392927 C 22.458751 60.107213 21.540383 59.780682 20.642424 59.413335 C 19.751267 59.039185 18.873716 58.624219 18.016573 58.168437 C 17.159431 57.705852 16.322696 57.209253 15.513172 56.671838 C 14.710451 56.12762 13.928138 55.549389 13.179838 54.937144 C 12.424736 54.318096 11.710451 53.665035 11.023376 52.97796 C 10.336301 52.290885 9.68324 51.5766 9.064192 50.821498 C 8.445144 50.073198 7.866913 49.290885 7.329498 48.481361 C 6.792083 47.67864 6.288681 46.841905 5.832899 45.984763 C 5.377117 45.12762 4.962151 44.250068 4.588001 43.352109 C 4.213851 42.45415 3.887321 41.542585 3.608409 40.610612 C 3.322695 39.685442 3.091402 38.739864 2.900926 37.787483 C 2.71045 36.835102 2.567593 35.875918 2.472355 34.909932 C 2.377117 33.943945 2.329497 32.971156 2.329497 31.998367 C 2.329497 31.025578 2.377117 30.059591 2.472355 29.093605 C 2.567593 28.127618 2.71045 27.161632 2.900926 26.209251 C 3.091402 25.25687 3.322695 24.318094 3.608409 23.386121 C 3.887321 22.454148 4.213851 21.542584 4.588001 20.644625 C 4.962151 19.746665 5.377117 18.869114 5.832899 18.011971 C 6.288681 17.154828 6.792083 16.324896 7.329498 15.515372 C 7.866913 14.705849 8.445144 13.930338 9.064192 13.175236 C 9.68324 12.426937 10.336301 11.705848 11.023376 11.018773 C 11.710451 10.331699 12.424736 9.678637 13.179838 9.066392 C 13.928138 8.447345 14.710451 7.869113 15.513172 7.331698 C 16.322696 6.787481 17.159431 6.290882 18.016573 5.8351 C 18.873716 5.372515 19.751267 4.957548 20.642424 4.590202 C 21.540383 4.216052 22.458751 3.889521 23.383921 3.61061 C 24.315894 3.324895 25.261472 3.0868 26.213853 2.903127 C 27.166234 2.71265 28.125418 2.569793 29.091404 2.474555 C 30.057391 2.379317 31.03018 2.331698 32.002969 2.331698 C 32.968956 2.331698 33.941745 2.379317 34.907731 2.474555 C 35.873718 2.569793 36.832901 2.71265 37.785282 2.903127 C 38.744466 3.0868 39.683242 3.324895 40.615215 3.61061 C 41.540385 3.889521 42.458752 4.216052 43.356711 4.590202 C 44.254671 4.957548 45.132222 5.372515 45.989365 5.8351 C 46.846508 6.290882 47.67644 6.787481 48.485964 7.331698 C 49.288685 7.869113 50.070998 8.447345 50.819297 9.066392 C 51.574399 9.678637 52.295488 10.331699 52.982563 11.018773 C 53.669637 11.705848 54.315896 12.426937 54.934944 13.175236 C 55.553991 13.930338 56.132223 14.705849 56.669638 15.515372 C 57.207053 16.324896 57.710454 17.154828 58.166236 18.011971 C 58.622019 18.869114 59.036985 19.746665 59.411134 20.644625 C 59.785284 21.542584 60.111815 22.454148 60.390726 23.386121 C 60.676441 24.318094 60.907733 25.25687 61.098209 26.209251 C 61.288686 27.161632 61.431543 28.127618 61.526781 29.093605 C 61.622019 30.059591 61.669638 31.025578 61.669638 31.998367 Z M 61.669638 31.998367 " stroke="#6aafef" stroke-width="4" stroke-opacity="1" stroke-miterlimit="10"/></g><g clip-path="url(#84b438d6c8)"><path fill="#6aafef" d="M 275.816406 274.699219 C 275.816406 274.722656 275.714844 274.738281 275.507812 274.738281 C 275.300781 274.738281 275.199219 274.722656 275.199219 274.699219 C 275.199219 274.671875 275.300781 274.65625 275.507812 274.65625 C 275.714844 274.65625 275.816406 274.671875 275.816406 274.699219 Z M 275.816406 274.699219 " fill-opacity="1" fill-rule="nonzero"/></g><g clip-path="url(#42d9c0d1a7)"><path stroke-linecap="butt" transform="matrix(0.574219, 0, 0, 0.574219, 275.197515, 274.657189)" fill="none" stroke-linejoin="miter" d="M 52.132222 11.869114 L 11.866913 52.12762 " stroke="#6aafef" stroke-width="4" stroke-opacity="1" stroke-miterlimit="10"/><path stroke-linecap="butt" transform="matrix(0.574219, 0, 0, 0.574219, 275.197515, 274.657189)" fill="none" stroke-linejoin="miter" d="M 52.132222 52.12762 L 11.866913 11.869114 " stroke="#6aafef" stroke-width="4" stroke-opacity="1" stroke-miterlimit="10"/></g><g clip-path="url(#955782f0e5)"><path stroke-linecap="butt" transform="matrix(0.574219, 0, 0, 0.574219, 84.280165, 291.294912)" fill="none" stroke-linejoin="miter" d="M 61.66856 31.996618 C 61.66856 32.969407 61.620941 33.942197 61.525703 34.908183 C 61.430465 35.874169 61.287608 36.833353 61.097132 37.785734 C 60.913458 38.738115 60.675363 39.683694 60.389649 40.615666 C 60.110737 41.540837 59.784206 42.459204 59.410057 43.357163 C 59.04271 44.255122 58.627744 45.132674 58.165159 45.983014 C 57.709376 46.840157 57.212778 47.676891 56.66856 48.486415 C 56.131145 49.289136 55.552914 50.071449 54.933866 50.819749 C 54.321621 51.574851 53.66856 52.295939 52.981485 52.983014 C 52.29441 53.670089 51.573321 54.316348 50.825022 54.935395 C 50.06992 55.554443 49.29441 56.132674 48.484886 56.670089 C 47.675362 57.207504 46.84543 57.710906 45.988287 58.166688 C 45.131144 58.622471 44.253593 59.037437 43.355634 59.411586 C 42.457674 59.785736 41.539307 60.112267 40.614137 60.391178 C 39.682164 60.676892 38.743388 60.908185 37.791007 61.098661 C 36.838626 61.289137 35.87264 61.431995 34.906653 61.527233 C 33.940667 61.622471 32.974681 61.67009 32.001891 61.67009 C 31.029102 61.67009 30.056313 61.622471 29.090326 61.527233 C 28.12434 61.431995 27.165156 61.289137 26.212775 61.098661 C 25.260394 60.908185 24.314816 60.676892 23.389646 60.391178 C 22.457673 60.112267 21.546108 59.785736 20.648149 59.411586 C 19.75019 59.037437 18.872639 58.622471 18.015496 58.166688 C 17.158353 57.710906 16.321618 57.207504 15.518897 56.670089 C 14.709373 56.132674 13.92706 55.554443 13.178761 54.935395 C 12.423659 54.316348 11.709373 53.670089 11.022298 52.983014 C 10.335223 52.295939 9.682162 51.574851 9.063114 50.819749 C 8.450869 50.071449 7.872638 49.289136 7.32842 48.486415 C 6.791005 47.676891 6.294406 46.840157 5.831821 45.983014 C 5.376039 45.132674 4.961073 44.255122 4.586923 43.357163 C 4.219576 42.459204 3.893046 41.540837 3.607331 40.615666 C 3.32842 39.683694 3.090324 38.738115 2.899848 37.785734 C 2.709372 36.833353 2.566515 35.874169 2.471277 34.908183 C 2.376039 33.942197 2.32842 32.969407 2.32842 31.996618 C 2.32842 31.030632 2.376039 30.057842 2.471277 29.091856 C 2.566515 28.12587 2.709372 27.166686 2.899848 26.214305 C 3.090324 25.261924 3.32842 24.316345 3.607331 23.384373 C 3.893046 22.459202 4.219576 21.540835 4.586923 20.642876 C 4.961073 19.744917 5.376039 18.867365 5.831821 18.017025 C 6.294406 17.159882 6.791005 16.323148 7.32842 15.513624 C 7.872638 14.710903 8.450869 13.92859 9.063114 13.18029 C 9.682162 12.425188 10.335223 11.7041 11.022298 11.017025 C 11.709373 10.32995 12.423659 9.683691 13.178761 9.064644 C 13.92706 8.445596 14.709373 7.867365 15.518897 7.32995 C 16.321618 6.792535 17.158353 6.289133 18.015496 5.833351 C 18.872639 5.377569 19.75019 4.962602 20.648149 4.588453 C 21.546108 4.214303 22.457673 3.887772 23.389646 3.608861 C 24.314816 3.323147 25.260394 3.091854 26.212775 2.901378 C 27.165156 2.710902 28.12434 2.568044 29.090326 2.472806 C 30.056313 2.377568 31.029102 2.329949 32.001891 2.329949 C 32.974681 2.329949 33.940667 2.377568 34.906653 2.472806 C 35.87264 2.568044 36.838626 2.710902 37.791007 2.901378 C 38.743388 3.091854 39.682164 3.323147 40.614137 3.608861 C 41.539307 3.887772 42.457674 4.214303 43.355634 4.588453 C 44.253593 4.962602 45.131144 5.377569 45.988287 5.833351 C 46.84543 6.289133 47.675362 6.792535 48.484886 7.32995 C 49.29441 7.867365 50.06992 8.445596 50.825022 9.064644 C 51.573321 9.683691 52.29441 10.32995 52.981485 11.017025 C 53.66856 11.7041 54.321621 12.425188 54.933866 13.18029 C 55.552914 13.92859 56.131145 14.710903 56.66856 15.513624 C 57.212778 16.323148 57.709376 17.159882 58.165159 18.017025 C 58.627744 18.867365 59.04271 19.744917 59.410057 20.642876 C 59.784206 21.540835 60.110737 22.459202 60.389649 23.384373 C 60.675363 24.316345 60.913458 25.261924 61.097132 26.214305 C 61.287608 27.166686 61.430465 28.12587 61.525703 29.091856 C 61.620941 30.057842 61.66856 31.030632 61.66856 31.996618 Z M 61.66856 31.996618 " stroke="#6aafef" stroke-width="4" stroke-opacity="1" stroke-miterlimit="10"/></g><g clip-path="url(#cce3a1bbf9)"><path fill="#6aafef" d="M 84.898438 291.335938 C 84.898438 291.363281 84.796875 291.375 84.589844 291.375 C 84.382812 291.375 84.28125 291.363281 84.28125 291.335938 C 84.28125 291.308594 84.382812 291.292969 84.589844 291.292969 C 84.796875 291.292969 84.898438 291.308594 84.898438 291.335938 Z M 84.898438 291.335938 " fill-opacity="1" fill-rule="nonzero"/></g><g clip-path="url(#da84805fc1)"><path stroke-linecap="butt" transform="matrix(0.574219, 0, 0, 0.574219, 84.280165, 291.294912)" fill="none" stroke-linejoin="miter" d="M 52.131145 11.867365 L 11.872638 52.132674 " stroke="#6aafef" stroke-width="4" stroke-opacity="1" stroke-miterlimit="10"/><path stroke-linecap="butt" transform="matrix(0.574219, 0, 0, 0.574219, 84.280165, 291.294912)" fill="none" stroke-linejoin="miter" d="M 52.131145 52.132674 L 11.872638 11.867365 " stroke="#6aafef" stroke-width="4" stroke-opacity="1" stroke-miterlimit="10"/></g><g clip-path="url(#bb37bb9dc2)"><path stroke-linecap="butt" transform="matrix(0.574219, 0, 0, 0.574219, 59.984638, 19.000892)" fill="none" stroke-linejoin="miter" d="M 61.673016 31.99845 C 61.673016 32.971239 61.625397 33.944028 61.530159 34.910015 C 61.434921 35.876001 61.292063 36.835185 61.101587 37.787566 C 60.911111 38.739947 60.673016 39.685525 60.394104 40.610695 C 60.10839 41.542668 59.781859 42.454233 59.414512 43.352192 C 59.040363 44.250151 58.625397 45.127702 58.169614 45.984845 C 57.707029 46.841988 57.21043 47.678723 56.673015 48.481444 C 56.128798 49.290968 55.550566 50.073281 54.938321 50.82158 C 54.319274 51.576682 53.666212 52.290968 52.979138 52.978043 C 52.292063 53.665118 51.570974 54.318179 50.822675 54.937227 C 50.074375 55.549472 49.292062 56.127703 48.482539 56.671921 C 47.673015 57.209336 46.843083 57.705935 45.98594 58.16852 C 45.128797 58.624302 44.251246 59.039268 43.353287 59.413418 C 42.455327 59.780765 41.543763 60.107295 40.61179 60.39301 C 39.679817 60.671921 38.741041 60.910016 37.78866 61.100493 C 36.836279 61.290969 35.877095 61.433826 34.911109 61.529064 C 33.93832 61.624302 32.972333 61.671921 31.999544 61.671921 C 31.026755 61.671921 30.060768 61.624302 29.094782 61.529064 C 28.121993 61.433826 27.162809 61.290969 26.210428 61.100493 C 25.258047 60.910016 24.319271 60.671921 23.387299 60.39301 C 22.455326 60.107295 21.543761 59.780765 20.645802 59.413418 C 19.747843 59.039268 18.870291 58.624302 18.013149 58.16852 C 17.156006 57.705935 16.326074 57.209336 15.51655 56.671921 C 14.707026 56.127703 13.931516 55.549472 13.176413 54.937227 C 12.428114 54.318179 11.707026 53.665118 11.019951 52.978043 C 10.332876 52.290968 9.679815 51.576682 9.06757 50.82158 C 8.448522 50.073281 7.870291 49.290968 7.332876 48.481444 C 6.788658 47.678723 6.292059 46.841988 5.836277 45.984845 C 5.373692 45.127702 4.958726 44.250151 4.591379 43.352192 C 4.217229 42.454233 3.890698 41.542668 3.604984 40.610695 C 3.326073 39.685525 3.087977 38.739947 2.897501 37.787566 C 2.713828 36.835185 2.57097 35.876001 2.475732 34.910015 C 2.380494 33.944028 2.332875 32.971239 2.332875 31.99845 C 2.332875 31.02566 2.380494 30.059674 2.475732 29.093688 C 2.57097 28.127701 2.713828 27.161715 2.897501 26.209334 C 3.087977 25.256953 3.326073 24.318177 3.604984 23.386204 C 3.890698 22.454231 4.217229 21.542667 4.591379 20.644707 C 4.958726 19.746748 5.373692 18.869197 5.836277 18.012054 C 6.292059 17.154911 6.788658 16.324979 7.332876 15.515455 C 7.870291 14.705931 8.448522 13.930421 9.06757 13.175319 C 9.679815 12.42702 10.332876 11.705931 11.019951 11.018856 C 11.707026 10.331781 12.428114 9.67872 13.176413 9.066475 C 13.931516 8.447427 14.707026 7.869196 15.51655 7.331781 C 16.326074 6.787563 17.156006 6.290965 18.013149 5.835182 C 18.870291 5.372597 19.747843 4.957631 20.645802 4.590284 C 21.543761 4.216135 22.455326 3.889604 23.387299 3.610692 C 24.319271 3.324978 25.258047 3.086883 26.210428 2.903209 C 27.162809 2.712733 28.121993 2.569876 29.094782 2.474638 C 30.060768 2.3794 31.026755 2.331781 31.999544 2.331781 C 32.972333 2.331781 33.93832 2.3794 34.911109 2.474638 C 35.877095 2.569876 36.836279 2.712733 37.78866 2.903209 C 38.741041 3.086883 39.679817 3.324978 40.61179 3.610692 C 41.543763 3.889604 42.455327 4.216135 43.353287 4.590284 C 44.251246 4.957631 45.128797 5.372597 45.98594 5.835182 C 46.843083 6.290965 47.673015 6.787563 48.482539 7.331781 C 49.292062 7.869196 50.074375 8.447427 50.822675 9.066475 C 51.570974 9.67872 52.292063 10.331781 52.979138 11.018856 C 53.666212 11.705931 54.319274 12.42702 54.938321 13.175319 C 55.550566 13.930421 56.128798 14.705931 56.673015 15.515455 C 57.21043 16.324979 57.707029 17.154911 58.169614 18.012054 C 58.625397 18.869197 59.040363 19.746748 59.414512 20.644707 C 59.781859 21.542667 60.10839 22.454231 60.394104 23.386204 C 60.673016 24.318177 60.911111 25.256953 61.101587 26.209334 C 61.292063 27.161715 61.434921 28.127701 61.530159 29.093688 C 61.625397 30.059674 61.673016 31.02566 61.673016 31.99845 Z M 61.673016 31.99845 " stroke="#6aafef" stroke-width="4" stroke-opacity="1" stroke-miterlimit="10"/></g><g clip-path="url(#cc97fef9a3)"><path fill="#6aafef" d="M 60.605469 19.042969 C 60.605469 19.066406 60.5 19.082031 60.292969 19.082031 C 60.089844 19.082031 59.984375 19.066406 59.984375 19.042969 C 59.984375 19.015625 60.089844 19 60.292969 19 C 60.5 19 60.605469 19.015625 60.605469 19.042969 Z M 60.605469 19.042969 " fill-opacity="1" fill-rule="nonzero"/></g><g clip-path="url(#3cc8cc1a5d)"><path stroke-linecap="butt" transform="matrix(0.574219, 0, 0, 0.574219, 59.984638, 19.000892)" fill="none" stroke-linejoin="miter" d="M 52.128797 11.869196 L 11.870291 52.127703 " stroke="#6aafef" stroke-width="4" stroke-opacity="1" stroke-miterlimit="10"/><path stroke-linecap="butt" transform="matrix(0.574219, 0, 0, 0.574219, 59.984638, 19.000892)" fill="none" stroke-linejoin="miter" d="M 52.128797 52.127703 L 11.870291 11.869196 " stroke="#6aafef" stroke-width="4" stroke-opacity="1" stroke-miterlimit="10"/></g><g clip-path="url(#0c319a8c18)"><path stroke-linecap="butt" transform="matrix(0.574219, 0, 0, 0.574219, 18.095451, 103.019643)" fill="none" stroke-linejoin="miter" d="M 61.670513 31.999808 C 61.670513 32.972597 61.622893 33.938584 61.527655 34.911373 C 61.432417 35.877359 61.28956 36.836543 61.099084 37.788924 C 60.908608 38.741305 60.677315 39.680081 60.391601 40.612054 C 60.112689 41.544027 59.786159 42.455591 59.412009 43.35355 C 59.037859 44.25151 58.622893 45.129061 58.167111 45.986204 C 57.711329 46.843347 57.207927 47.673279 56.670512 48.482803 C 56.133097 49.292326 55.554866 50.074639 54.935818 50.822939 C 54.31677 51.571238 53.663709 52.292327 52.976634 52.979402 C 52.289559 53.666476 51.575274 54.319538 50.820172 54.938585 C 50.071872 55.55083 49.289559 56.129062 48.486838 56.666477 C 47.677314 57.210694 46.840579 57.707293 45.983436 58.169878 C 45.126294 58.62566 44.248742 59.040626 43.357586 59.414776 C 42.459627 59.782123 41.541259 60.108654 40.616089 60.394368 C 39.684116 60.67328 38.738538 60.911375 37.786157 61.101851 C 36.833776 61.292327 35.874592 61.435185 34.908606 61.530423 C 33.942619 61.625661 32.96983 61.67328 31.997041 61.67328 C 31.031054 61.67328 30.058265 61.625661 29.092279 61.530423 C 28.126292 61.435185 27.167109 61.292327 26.214727 61.101851 C 25.255544 60.911375 24.316768 60.67328 23.384795 60.394368 C 22.459625 60.108654 21.541258 59.782123 20.643298 59.414776 C 19.745339 59.040626 18.867788 58.62566 18.010645 58.169878 C 17.153502 57.707293 16.32357 57.210694 15.514046 56.666477 C 14.711325 56.129062 13.929012 55.55083 13.180713 54.938585 C 12.425611 54.319538 11.704522 53.666476 11.017447 52.979402 C 10.330373 52.292327 9.684114 51.571238 9.065066 50.822939 C 8.446019 50.074639 7.867787 49.292326 7.330372 48.482803 C 6.792957 47.673279 6.289556 46.843347 5.833774 45.986204 C 5.377991 45.129061 4.963025 44.25151 4.588876 43.35355 C 4.214726 42.455591 3.888195 41.544027 3.609284 40.612054 C 3.323569 39.680081 3.092277 38.741305 2.901801 37.788924 C 2.711324 36.836543 2.568467 35.877359 2.473229 34.911373 C 2.377991 33.938584 2.330372 32.972597 2.330372 31.999808 C 2.330372 31.027019 2.377991 30.061032 2.473229 29.095046 C 2.568467 28.122257 2.711324 27.163073 2.901801 26.210692 C 3.092277 25.258311 3.323569 24.319535 3.609284 23.387563 C 3.888195 22.45559 4.214726 21.544025 4.588876 20.646066 C 4.963025 19.748106 5.377991 18.870555 5.833774 18.013412 C 6.289556 17.15627 6.792957 16.326338 7.330372 15.516814 C 7.867787 14.70729 8.446019 13.93178 9.065066 13.176677 C 9.684114 12.428378 10.330373 11.70729 11.017447 11.020215 C 11.704522 10.33314 12.425611 9.680079 13.180713 9.067834 C 13.929012 8.448786 14.711325 7.870555 15.514046 7.33314 C 16.32357 6.788922 17.153502 6.292323 18.010645 5.836541 C 18.867788 5.373956 19.745339 4.95899 20.643298 4.591643 C 21.541258 4.217493 22.459625 3.890962 23.384795 3.605248 C 24.316768 3.326337 25.255544 3.088241 26.214727 2.897765 C 27.167109 2.707289 28.126292 2.571234 29.092279 2.475996 C 30.058265 2.380758 31.031054 2.333139 31.997041 2.333139 C 32.96983 2.333139 33.942619 2.380758 34.908606 2.475996 C 35.874592 2.571234 36.833776 2.707289 37.786157 2.897765 C 38.738538 3.088241 39.684116 3.326337 40.616089 3.605248 C 41.541259 3.890962 42.459627 4.217493 43.357586 4.591643 C 44.248742 4.95899 45.126294 5.373956 45.983436 5.836541 C 46.840579 6.292323 47.677314 6.788922 48.486838 7.33314 C 49.289559 7.870555 50.071872 8.448786 50.820172 9.067834 C 51.575274 9.680079 52.289559 10.33314 52.976634 11.020215 C 53.663709 11.70729 54.31677 12.428378 54.935818 13.176677 C 55.554866 13.93178 56.133097 14.70729 56.670512 15.516814 C 57.207927 16.326338 57.711329 17.15627 58.167111 18.013412 C 58.622893 18.870555 59.037859 19.748106 59.412009 20.646066 C 59.786159 21.544025 60.112689 22.45559 60.391601 23.387563 C 60.677315 24.319535 60.908608 25.258311 61.099084 26.210692 C 61.28956 27.163073 61.432417 28.122257 61.527655 29.095046 C 61.622893 30.061032 61.670513 31.027019 61.670513 31.999808 Z M 61.670513 31.999808 " stroke="#6aafef" stroke-width="4" stroke-opacity="1" stroke-miterlimit="10"/></g><g clip-path="url(#ed346a5bd2)"><path fill="#6aafef" d="M 18.714844 103.058594 C 18.714844 103.085938 18.613281 103.101562 18.40625 103.101562 C 18.199219 103.101562 18.09375 103.085938 18.09375 103.058594 C 18.09375 103.03125 18.199219 103.019531 18.40625 103.019531 C 18.613281 103.019531 18.714844 103.03125 18.714844 103.058594 Z M 18.714844 103.058594 " fill-opacity="1" fill-rule="nonzero"/></g><g clip-path="url(#db01977cfd)"><path stroke-linecap="butt" transform="matrix(0.574219, 0, 0, 0.574219, 18.095451, 103.019643)" fill="none" stroke-linejoin="miter" d="M 52.133097 11.870555 L 11.867788 52.129061 " stroke="#6aafef" stroke-width="4" stroke-opacity="1" stroke-miterlimit="10"/><path stroke-linecap="butt" transform="matrix(0.574219, 0, 0, 0.574219, 18.095451, 103.019643)" fill="none" stroke-linejoin="miter" d="M 52.133097 52.129061 L 11.867788 11.870555 " stroke="#6aafef" stroke-width="4" stroke-opacity="1" stroke-miterlimit="10"/></g><g clip-path="url(#8f55793913)"><path stroke-linecap="butt" transform="matrix(0.574219, 0, 0, 0.574219, 101.873823, 103.019643)" fill="none" stroke-linejoin="miter" d="M 61.668722 31.999808 C 61.668722 32.972597 61.621103 33.938584 61.525865 34.911373 C 61.430627 35.877359 61.287769 36.836543 61.097293 37.788924 C 60.91362 38.741305 60.675524 39.680081 60.38981 40.612054 C 60.110899 41.544027 59.784368 42.455591 59.410218 43.35355 C 59.042871 44.25151 58.627905 45.129061 58.16532 45.986204 C 57.709538 46.843347 57.212939 47.673279 56.668721 48.482803 C 56.131306 49.292326 55.553075 50.074639 54.934027 50.822939 C 54.321782 51.571238 53.668721 52.292327 52.981646 52.979402 C 52.294571 53.666476 51.573483 54.319538 50.825184 54.938585 C 50.070081 55.55083 49.294571 56.129062 48.485047 56.666477 C 47.675523 57.210694 46.845591 57.707293 45.988448 58.169878 C 45.131306 58.62566 44.253754 59.040626 43.355795 59.414776 C 42.457836 59.782123 41.539469 60.108654 40.614298 60.394368 C 39.682326 60.67328 38.74355 60.911375 37.791169 61.101851 C 36.831985 61.292327 35.872801 61.435185 34.906815 61.530423 C 33.940829 61.625661 32.974842 61.67328 32.002053 61.67328 C 31.029264 61.67328 30.056474 61.625661 29.090488 61.530423 C 28.124502 61.435185 27.165318 61.292327 26.212937 61.101851 C 25.260556 60.911375 24.314977 60.67328 23.389807 60.394368 C 22.457834 60.108654 21.54627 59.782123 20.64831 59.414776 C 19.750351 59.040626 18.8728 58.62566 18.015657 58.169878 C 17.158514 57.707293 16.32178 57.210694 15.519058 56.666477 C 14.709535 56.129062 13.927222 55.55083 13.178922 54.938585 C 12.42382 54.319538 11.709534 53.666476 11.022459 52.979402 C 10.335385 52.292327 9.682323 51.571238 9.063276 50.822939 C 8.451031 50.074639 7.872799 49.292326 7.328582 48.482803 C 6.791167 47.673279 6.294568 46.843347 5.831983 45.986204 C 5.3762 45.129061 4.961234 44.25151 4.587085 43.35355 C 4.219738 42.455591 3.886404 41.544027 3.607493 40.612054 C 3.328581 39.680081 3.090486 38.741305 2.90001 37.788924 C 2.709534 36.836543 2.566676 35.877359 2.471438 34.911373 C 2.3762 33.938584 2.328581 32.972597 2.328581 31.999808 C 2.328581 31.027019 2.3762 30.061032 2.471438 29.095046 C 2.566676 28.122257 2.709534 27.163073 2.90001 26.210692 C 3.090486 25.258311 3.328581 24.319535 3.607493 23.387563 C 3.886404 22.45559 4.219738 21.544025 4.587085 20.646066 C 4.961234 19.748106 5.3762 18.870555 5.831983 18.013412 C 6.294568 17.15627 6.791167 16.326338 7.328582 15.516814 C 7.872799 14.70729 8.451031 13.93178 9.063276 13.176677 C 9.682323 12.428378 10.335385 11.70729 11.022459 11.020215 C 11.709534 10.33314 12.42382 9.680079 13.178922 9.067834 C 13.927222 8.448786 14.709535 7.870555 15.519058 7.33314 C 16.32178 6.788922 17.158514 6.292323 18.015657 5.836541 C 18.8728 5.373956 19.750351 4.95899 20.64831 4.591643 C 21.54627 4.217493 22.457834 3.890962 23.389807 3.605248 C 24.314977 3.326337 25.260556 3.088241 26.212937 2.897765 C 27.165318 2.707289 28.124502 2.571234 29.090488 2.475996 C 30.056474 2.380758 31.029264 2.333139 32.002053 2.333139 C 32.974842 2.333139 33.940829 2.380758 34.906815 2.475996 C 35.872801 2.571234 36.831985 2.707289 37.791169 2.897765 C 38.74355 3.088241 39.682326 3.326337 40.614298 3.605248 C 41.539469 3.890962 42.457836 4.217493 43.355795 4.591643 C 44.253754 4.95899 45.131306 5.373956 45.988448 5.836541 C 46.845591 6.292323 47.675523 6.788922 48.485047 7.33314 C 49.294571 7.870555 50.070081 8.448786 50.825184 9.067834 C 51.573483 9.680079 52.294571 10.33314 52.981646 11.020215 C 53.668721 11.70729 54.321782 12.428378 54.934027 13.176677 C 55.553075 13.93178 56.131306 14.70729 56.668721 15.516814 C 57.212939 16.326338 57.709538 17.15627 58.16532 18.013412 C 58.627905 18.870555 59.042871 19.748106 59.410218 20.646066 C 59.784368 21.544025 60.110899 22.45559 60.38981 23.387563 C 60.675524 24.319535 60.91362 25.258311 61.097293 26.210692 C 61.287769 27.163073 61.430627 28.122257 61.525865 29.095046 C 61.621103 30.061032 61.668722 31.027019 61.668722 31.999808 Z M 61.668722 31.999808 " stroke="#6aafef" stroke-width="4" stroke-opacity="1" stroke-miterlimit="10"/></g><g clip-path="url(#797dcddd16)"><path fill="#6aafef" d="M 102.492188 103.058594 C 102.492188 103.085938 102.390625 103.101562 102.183594 103.101562 C 101.976562 103.101562 101.875 103.085938 101.875 103.058594 C 101.875 103.03125 101.976562 103.019531 102.183594 103.019531 C 102.390625 103.019531 102.492188 103.03125 102.492188 103.058594 Z M 102.492188 103.058594 " fill-opacity="1" fill-rule="nonzero"/></g><g clip-path="url(#049f8c525e)"><path stroke-linecap="butt" transform="matrix(0.574219, 0, 0, 0.574219, 101.873823, 103.019643)" fill="none" stroke-linejoin="miter" d="M 52.131306 11.870555 L 11.8728 52.129061 " stroke="#6aafef" stroke-width="4" stroke-opacity="1" stroke-miterlimit="10"/><path stroke-linecap="butt" transform="matrix(0.574219, 0, 0, 0.574219, 101.873823, 103.019643)" fill="none" stroke-linejoin="miter" d="M 52.131306 52.129061 L 11.8728 11.870555 " stroke="#6aafef" stroke-width="4" stroke-opacity="1" stroke-miterlimit="10"/></g><g clip-path="url(#f20e55e0fe)"><path stroke-linecap="butt" transform="matrix(0.574219, 0, 0, 0.574219, 59.984638, 140.017841)" fill="none" stroke-linejoin="miter" d="M 61.673016 32.002946 C 61.673016 32.968932 61.625397 33.941721 61.530159 34.907708 C 61.434921 35.873694 61.292063 36.832878 61.101587 37.785259 C 60.911111 38.744443 60.673016 39.683218 60.394104 40.615191 C 60.10839 41.540361 59.781859 42.458729 59.414512 43.356688 C 59.040363 44.254647 58.625397 45.132198 58.169614 45.989341 C 57.707029 46.846484 57.21043 47.676416 56.673015 48.48594 C 56.128798 49.288661 55.550566 50.070974 54.938321 50.819274 C 54.319274 51.574376 53.666212 52.295464 52.979138 52.982539 C 52.292063 53.669614 51.570974 54.315873 50.822675 54.93492 C 50.074375 55.553968 49.292062 56.132199 48.482539 56.669614 C 47.673015 57.207029 46.843083 57.710431 45.98594 58.166213 C 45.128797 58.621995 44.251246 59.036961 43.353287 59.411111 C 42.455327 59.785261 41.543763 60.111791 40.61179 60.390703 C 39.679817 60.676417 38.741041 60.90771 37.78866 61.098186 C 36.836279 61.288662 35.877095 61.431519 34.911109 61.526757 C 33.93832 61.621996 32.972333 61.669615 31.999544 61.669615 C 31.026755 61.669615 30.060768 61.621996 29.094782 61.526757 C 28.121993 61.431519 27.162809 61.288662 26.210428 61.098186 C 25.258047 60.90771 24.319271 60.676417 23.387299 60.390703 C 22.455326 60.111791 21.543761 59.785261 20.645802 59.411111 C 19.747843 59.036961 18.870291 58.621995 18.013149 58.166213 C 17.156006 57.710431 16.326074 57.207029 15.51655 56.669614 C 14.707026 56.132199 13.931516 55.553968 13.176413 54.93492 C 12.428114 54.315873 11.707026 53.669614 11.019951 52.982539 C 10.332876 52.295464 9.679815 51.574376 9.06757 50.819274 C 8.448522 50.070974 7.870291 49.288661 7.332876 48.48594 C 6.788658 47.676416 6.292059 46.846484 5.836277 45.989341 C 5.373692 45.132198 4.958726 44.254647 4.591379 43.356688 C 4.217229 42.458729 3.890698 41.540361 3.604984 40.615191 C 3.326073 39.683218 3.087977 38.744443 2.897501 37.785259 C 2.713828 36.832878 2.57097 35.873694 2.475732 34.907708 C 2.380494 33.941721 2.332875 32.968932 2.332875 32.002946 C 2.332875 31.030156 2.380494 30.057367 2.475732 29.091381 C 2.57097 28.125394 2.713828 27.166211 2.897501 26.21383 C 3.087977 25.261449 3.326073 24.31587 3.604984 23.383897 C 3.890698 22.458727 4.217229 21.54036 4.591379 20.642401 C 4.958726 19.751244 5.373692 18.873693 5.836277 18.01655 C 6.292059 17.159407 6.788658 16.322672 7.332876 15.513148 C 7.870291 14.710427 8.448522 13.928114 9.06757 13.179815 C 9.679815 12.424713 10.332876 11.710427 11.019951 11.023352 C 11.707026 10.336277 12.428114 9.683216 13.176413 9.064168 C 13.931516 8.445121 14.707026 7.866889 15.51655 7.329474 C 16.326074 6.792059 17.156006 6.288658 18.013149 5.832876 C 18.870291 5.377093 19.747843 4.962127 20.645802 4.587978 C 21.543761 4.213828 22.455326 3.887297 23.387299 3.608386 C 24.319271 3.322671 25.258047 3.091379 26.210428 2.900903 C 27.162809 2.710426 28.121993 2.567569 29.094782 2.472331 C 30.060768 2.377093 31.026755 2.329474 31.999544 2.329474 C 32.972333 2.329474 33.93832 2.377093 34.911109 2.472331 C 35.877095 2.567569 36.836279 2.710426 37.78866 2.900903 C 38.741041 3.091379 39.679817 3.322671 40.61179 3.608386 C 41.543763 3.887297 42.455327 4.213828 43.353287 4.587978 C 44.251246 4.962127 45.128797 5.377093 45.98594 5.832876 C 46.843083 6.288658 47.673015 6.792059 48.482539 7.329474 C 49.292062 7.866889 50.074375 8.445121 50.822675 9.064168 C 51.570974 9.683216 52.292063 10.336277 52.979138 11.023352 C 53.666212 11.710427 54.319274 12.424713 54.938321 13.179815 C 55.550566 13.928114 56.128798 14.710427 56.673015 15.513148 C 57.21043 16.322672 57.707029 17.159407 58.169614 18.01655 C 58.625397 18.873693 59.040363 19.751244 59.414512 20.642401 C 59.781859 21.54036 60.10839 22.458727 60.394104 23.383897 C 60.673016 24.31587 60.911111 25.261449 61.101587 26.21383 C 61.292063 27.166211 61.434921 28.125394 61.530159 29.091381 C 61.625397 30.057367 61.673016 31.030156 61.673016 32.002946 Z M 61.673016 32.002946 " stroke="#6aafef" stroke-width="4" stroke-opacity="1" stroke-miterlimit="10"/></g><g clip-path="url(#2f516cdf8d)"><path fill="#6aafef" d="M 60.605469 140.058594 C 60.605469 140.085938 60.5 140.097656 60.292969 140.097656 C 60.089844 140.097656 59.984375 140.085938 59.984375 140.058594 C 59.984375 140.03125 60.089844 140.019531 60.292969 140.019531 C 60.5 140.019531 60.605469 140.03125 60.605469 140.058594 Z M 60.605469 140.058594 " fill-opacity="1" fill-rule="nonzero"/></g><g clip-path="url(#5c17975208)"><path stroke-linecap="butt" transform="matrix(0.574219, 0, 0, 0.574219, 59.984638, 140.017841)" fill="none" stroke-linejoin="miter" d="M 52.128797 11.86689 L 11.870291 52.132199 " stroke="#6aafef" stroke-width="4" stroke-opacity="1" stroke-miterlimit="10"/><path stroke-linecap="butt" transform="matrix(0.574219, 0, 0, 0.574219, 59.984638, 140.017841)" fill="none" stroke-linejoin="miter" d="M 52.128797 52.132199 L 11.870291 11.86689 " stroke="#6aafef" stroke-width="4" stroke-opacity="1" stroke-miterlimit="10"/></g></svg>