<?xml version="1.0" encoding="UTF-8"?>
<svg id="Layer_1" data-name="Layer 1" xmlns="http://www.w3.org/2000/svg" viewBox="0 0 55.18 64">
  <defs>
    <style>
      .cls-1 {
        stroke: #6197d4;
      }

      .cls-1, .cls-2 {
        fill: none;
        stroke-miterlimit: 10;
        stroke-width: 2px;
      }

      .cls-3 {
        fill: #6197d4;
        stroke-width: 0px;
      }

      .cls-2 {
        stroke: #6197d4;
      }
    </style>
  </defs>
  <path class="cls-1" d="m27.59,1.32C10.37,1.32,8.56,19.33,8.56,19.33c-.24,8.49,4.58,13.67,8.61,16.62,4.03,2.95,3.31,9.21,3.31,9.21h14.21s-.72-6.26,3.31-9.21c4.03-2.95,8.85-8.13,8.61-16.62,0,0-1.8-18.01-19.03-18.01Z"/>
  <path class="cls-3" d="m29.34,49.71h7.23v-2.01h-17.95v2.01h7.23s.56.36.56.96-.4.92-.68.92h-7.11v2.09h17.95v-2.09h-7.11c-.28,0-.68-.32-.68-.92s.56-.96.56-.96Z"/>
  <path class="cls-3" d="m27.59,55.65h-8.97s.64,2.05,2.65,2.05h12.65c2.01,0,2.65-2.05,2.65-2.05h-8.97Z"/>
  <path class="cls-3" d="m27.59,59.62h-4.96v1.53s.18,2.49,2.48,2.49h4.96c2.3,0,2.48-2.49,2.48-2.49v-1.53h-4.96Z"/>
  <polygon class="cls-2" points="31.69 21.98 27.59 19.81 23.49 21.98 19.64 19.81 25.3 45.16 29.88 45.16 35.54 19.81 31.69 21.98"/>
  <circle class="cls-2" cx="35.54" cy="17.04" r="2.3"/>
  <circle class="cls-2" cx="19.64" cy="17.04" r="2.3"/>
</svg>