<svg xmlns="http://www.w3.org/2000/svg" viewBox="0 0 50 62.5" x="0px" y="0px"><g><path d="M47,46.0001H46V28.0013h1a.9999.9999,0,1,0,0-1.9998H39V22.9312l1.4697.9186a1.00022,1.00022,0,0,0,1.0605-1.6962L25.5303,12.1543a1.003,1.003,0,0,0-1.0606,0L18,16.1976V13.0024a.99972.99972,0,0,0-1-1H12a.99972.99972,0,0,0-1,1v7.5699L8.4698,22.1536a1.00022,1.00022,0,0,0,1.0605,1.6962L11,22.9312v3.0703H3a.9999.9999,0,1,0,0,1.9998H4V46.0001H3A1,1,0,1,0,3,48H47a1,1,0,1,0,0-1.9999ZM44,28.0013V46.0001H39V34.0009a.99974.99974,0,0,0-.5528-.8944l-2.5527-1.2763,2.7051-2.0292A.9987.9987,0,0,0,39,29.0013v-1ZM13,14.0023h3v3.4452l-3,1.8749ZM6,28.0013h5v6.9996a1.00015,1.00015,0,0,0,.293.707l1.293,1.2928-1.293,1.2929a1.00015,1.00015,0,0,0-.293.707v6.9995H6Zm23,5.9996v3.5857l-8,7.9995V40.4146l6.4141-6.4137Zm-8,3.5857V34.0009h3.5859Zm2.4141,8.4135L29,40.4146v5.5855Zm7.5859,0V33.001a.9997.9997,0,0,0-1-.9999H20a.9997.9997,0,0,0-1,.9999V46.0001H13V39.4146l1.707-1.7069a.9993.9993,0,0,0,0-1.4139L13,34.5868V21.6813l12-7.4998,12,7.4998v6.82l-3.5996,2.7a.99944.99944,0,0,0,.1523,1.6942L37,34.6191v11.381ZM25,18.002a4.99965,4.99965,0,1,0,5,4.9997A5.00574,5.00574,0,0,0,25,18.002Zm0,7.9995a2.9998,2.9998,0,1,1,3-2.9998A3.00317,3.00317,0,0,1,25,26.0015Zm16.039-9.9993a6.99508,6.99508,0,0,0,6.9492-5.9581.99843.99843,0,0,0-.2812-.8598c-.4151-.4765-1.1302-.1985-1.6348-.2144a5.04138,5.04138,0,0,1-4.9726-5.8141,1.00712,1.00712,0,0,0-1.1407-1.141C31.4414,3.496,32.4172,15.8175,41.039,16.0022ZM39.0439,4.3379a7.04907,7.04907,0,0,0,6.6211,6.6202,5.001,5.001,0,0,1-4.626,3.0442C35.5919,13.9801,34.0836,6.4588,39.0439,4.3379ZM15.7627,6.9588a1.00087,1.00087,0,0,1,.7442-1.2025,3.99161,3.99161,0,0,1,3.2294.6327c.0401-.0737.0821-.1469.127-.2187a3.97032,3.97032,0,0,1,2.4853-1.788,1.00007,1.00007,0,1,1,.4571,1.9472,1.99845,1.99845,0,0,0-1.4883,2.4036,1.042,1.042,0,0,1,.0264.2305.99992.99992,0,0,1-.7706.9721.98484.98484,0,0,1-.2304.0268.99987.99987,0,0,1-.9727-.7704,2.0032,2.0032,0,0,0-2.4043-1.4887A1.00409,1.00409,0,0,1,15.7627,6.9588ZM3.2305,9.9669A.9995.9995,0,0,1,3.5586,8.591a3.99067,3.99067,0,0,1,3.2637-.4155c.0146-.0825.0322-.165.0518-.247A3.97464,3.97464,0,0,1,8.6699,5.4492.99991.99991,0,0,1,9.7168,7.1531a2.00076,2.00076,0,0,0-.6562,2.7508.9998.9998,0,1,1-1.7031,1.0478,2.00261,2.00261,0,0,0-2.752-.6567A1.00178,1.00178,0,0,1,3.2305,9.9669Z"/></g></svg>