<?xml version="1.0" encoding="UTF-8"?>
<svg id="Layer_1" data-name="Layer 1" xmlns="http://www.w3.org/2000/svg" viewBox="0 0 64 64">
  <defs>
    <style>
      .cls-1 {
        stroke-width: .25px;
      }

      .cls-1, .cls-2 {
        fill: #6197d4;
      }

      .cls-1, .cls-3 {
        stroke: #efefef;
        stroke-miterlimit: 10;
      }

      .cls-3 {
        fill: none;
        stroke-width: .5px;
      }
    </style>
  </defs>
  <path class="cls-2" d="m51.96,27.75c.3-8.78-6.66-9.5-6.66-9.5l-13.07-8.57-14.38,8.28c-5.9,1.67-6.36,10.34-6.36,10.34-8.68,7.47-1.77,15.08-1.77,15.08,0,2.77,1.26,4.64,1.26,4.64.76,6.26,6.81,8.48,6.81,8.48,2.93,2.62,6.56,3.53,6.56,3.53,8.07,8.32,15.84,0,15.84,0,2.98-.66,6.41-3.58,6.41-3.58,6.91-3.13,6.86-9.18,6.86-9.18.96-1.21,1.21-4.24,1.21-4.24,6.21-9.64-2.72-15.29-2.72-15.29Zm-12.31-8.67c9.5-.97,10.01,6.67,10.01,8.31,0,.16-.15.28-.31.24-5.29-1.32-9.01-6.77-9.89-8.17-.1-.15,0-.36.19-.38Zm-7.59-1.47c3.72,0,6.73,1.7,6.73,3.81s-3.02,3.81-6.73,3.81-6.73-1.7-6.73-3.81,3.02-3.81,6.73-3.81Zm-8.19,1.47c.18.02.29.22.19.38-.88,1.41-4.6,6.85-9.89,8.17-.15.04-.31-.08-.31-.24,0-1.64.51-9.28,10.01-8.31Zm-13.02,22.59c-2.31-3.33-1.86-3.87-1.85-5.98.01-2.09,2.16-4.65,3.41-5.49,1.25-.83,1.61,0,1.61,0,1.42,3.14-.85,14.79-3.16,11.46Zm12.94,10.59c-.64,3.97-11.62,3.67-10.59-7.83,0,0,.11-2.31,2.99-1.36,2.88.95,8.25,5.22,7.6,9.19Zm-4.12-13.02c-2.91-2.01-3.28-6.5-.84-10.03s6.78-4.76,9.68-2.75,3.28,6.5.84,10.03c-2.44,3.53-6.78,4.76-9.68,2.75Zm12.29,22.42c-3.85.39-6.21-2.87-6.81-3.8-.16-.26-.19-.59-.02-.85.7-1.11,3.9-2.17,7-2.2,3.66-.04,7.24,1.31,7.12,2.57-.11,1.27-2.8,3.82-7.29,4.28Zm.29-8.83c-4.11,0-7.43-3.04-7.43-6.79s3.33-6.79,7.43-6.79,7.43,3.04,7.43,6.79-3.33,6.79-7.43,6.79Zm3.12-16.34c-2.44-3.53-2.07-8.02.84-10.03s7.24-.78,9.68,2.75c2.44,3.53,2.07,8.02-.84,10.03-2.91,2.01-7.24.78-9.68-2.75Zm4.94,15.77c-.64-3.97,4.73-8.25,7.6-9.19,2.88-.95,2.99,1.36,2.99,1.36,1.02,11.5-9.95,11.8-10.59,7.83Zm12.5-10.59c-2.31,3.33-4.58-8.32-3.16-11.46,0,0,.36-.83,1.61,0,1.25.83,3.39,3.4,3.41,5.49.01,2.11.45,2.65-1.85,5.98Z"/>
  <path class="cls-1" d="m32.66,8.23s1.91-6.92,4.22-6.47v.91s1.36-1.78,2.19-1.82v.98s1.29-1.48,2.5-1.48v1.14s.57-1.1,2.61-1.14v.87s1.14-1.32,2.84-.87v.91s.72-.72,2.08-.26l-.34.79s2.01-.72,3.37.42l-.53.42s1.89-.34,2.53.19-.83,2.01-.83,2.01c0,0,1.32.23.79,1.55l-.83.76s1.1.53.23,1.7l-.87.53s.87.83-.11,1.74l-.87.45s.72,1.82-.68,1.82l-1.02.3s.11,1.55-.68,1.66l-1.1.26s-.08,1.44-1.74,1.48l-1.29-.19,1.25,1.02s-9.99.91-10.63-4.73c0,0-3.79-1.55-3.09-4.96Z"/>
  <path class="cls-3" d="m35.75,13.18s7.38-7.34,11.96-7.57c0,0-7.15,2.95-11.96,7.57Z"/>
  <path class="cls-1" d="m31.88,8.51s-1.91-6.92-4.22-6.47v.91s-1.36-1.78-2.19-1.82v.98s-1.29-1.48-2.5-1.48v1.14s-.57-1.1-2.61-1.14v.87s-1.14-1.32-2.84-.87v.91s-.72-.72-2.08-.26l.34.79s-2.01-.72-3.37.42l.53.42s-1.89-.34-2.53.19.83,2.01.83,2.01c0,0-1.32.23-.79,1.55l.83.76s-1.1.53-.23,1.7l.87.53s-.87.83.11,1.74l.87.45s-.72,1.82.68,1.82l1.02.3s-.11,1.55.68,1.66l1.1.26s.08,1.44,1.74,1.48l1.29-.19-1.25,1.02s9.99.91,10.63-4.73c0,0,3.79-1.55,3.09-4.96Z"/>
  <path class="cls-3" d="m28.79,13.47s-7.38-7.34-11.96-7.57c0,0,7.15,2.95,11.96,7.57Z"/>
</svg>