<?xml version="1.0" encoding="UTF-8"?>
<svg id="Layer_1" data-name="Layer 1" xmlns="http://www.w3.org/2000/svg" viewBox="0 0 64 64">
  <defs>
    <style>
      .cls-1 {
        fill: #fff;
      }

      .cls-2 {
        fill: #3f3f3f;
      }

      .cls-3 {
        fill: #f476e2;
      }

      .cls-4 {
        fill: #ead18b;
      }

      .cls-5 {
        fill: #e0c173;
      }
    </style>
  </defs>
  <g>
    <rect class="cls-3" x="28.73" y="44.74" width="6.66" height="9.75" rx="3.33" ry="3.33"/>
    <g>
      <circle class="cls-1" cx="17.98" cy="51.31" r="4.38"/>
      <circle class="cls-1" cx="17.98" cy="45.89" r="4.38"/>
      <rect class="cls-1" x="20.61" y="45.54" width="22.87" height="6.12"/>
      <circle class="cls-1" cx="46.13" cy="51.31" r="4.38"/>
      <circle class="cls-1" cx="46.13" cy="45.89" r="4.38"/>
    </g>
    <path class="cls-4" d="m22.58,36.8h9.71v7.34c0,2.84-2.31,5.15-5.15,5.15h0c-2.51,0-4.56-2.04-4.56-4.56v-7.94h0Z"/>
    <path class="cls-4" d="m31.85,36.8h9.71v7.64c0,2.68-2.18,4.86-4.86,4.86h0c-2.68,0-4.86-2.18-4.86-4.86v-7.64h0Z"/>
    <path class="cls-4" d="m45.1,24.3c-.42-4.25-3.54-6.8-3.54-6.8,0,0-1.72-2.63-9.49-2.32-7.77-.31-9.49,2.32-9.49,2.32,0,0-3.11,2.55-3.54,6.8-.43,4.25-.46,9.62-.46,9.62,0,0,.2,4.07,4,4.99h9.49s9.5,0,9.5,0c3.8-.92,4-4.99,4-4.99,0,0-.04-5.37-.46-9.62Z"/>
    <path class="cls-5" d="m41.56,17.5s3.23-1.51,5.62,0,7.96,9.35,7.96,9.35c0,0,.93.8.39,2.47s-2.59,6.48-2.7,7.61c-.1,1.03-.77,3.25-2.51,3.32s-4.56-2.97-5.12-4.69-3.63-18.06-3.63-18.06Z"/>
    <path class="cls-5" d="m22.56,17.5s-3.23-1.51-5.62,0-7.96,9.35-7.96,9.35c0,0-.93.8-.39,2.47s2.59,6.48,2.7,7.61c.1,1.03.77,3.25,2.51,3.32,1.74.08,4.56-2.97,5.12-4.69s3.63-18.06,3.63-18.06Z"/>
    <path class="cls-2" d="m40.61,29.11s-.36-1.25-1.58-1.27h0s-.03,0-.05,0c-.02,0-.03,0-.05,0h0c-1.22.03-1.58,1.27-1.58,1.27,0,0-.23.89,0,.8.11-.04.16-.08.18-.11.02,0,.11-.12.49-.84.24-.45.6-.61.96-.64.36.02.72.19.96.64.38.72.48.85.49.84.02.03.06.07.18.11.23.09,0-.8,0-.8Z"/>
    <path class="cls-2" d="m26.76,29.11s-.36-1.25-1.58-1.27h0s-.03,0-.05,0c-.02,0-.03,0-.05,0h0c-1.22.03-1.58,1.27-1.58,1.27,0,0-.23.89,0,.8.11-.04.16-.08.18-.11.02,0,.11-.12.49-.84.24-.45.6-.61.96-.64.36.02.72.19.96.64.38.72.48.85.49.84.02.03.06.07.18.11.23.09,0-.8,0-.8Z"/>
    <path class="cls-4" d="m32.07,15.2s.18-3.04,1.41-2.88c0,0-.77-.61-1.35.22s-.06,2.67-.06,2.67Z"/>
    <path class="cls-4" d="m32.07,15.18s.17-2.28,1.27-2.03c0,0-.29.03-.46.3s-.81,1.74-.81,1.74Z"/>
    <path class="cls-4" d="m32.07,15.18s-1-1.31-.29-1.7c0,0-.14.15-.1.38s.39,1.32.39,1.32Z"/>
    <path class="cls-2" d="m35.72,41.35c-.08-.74-.65-1.48-1.24-1.93-.68-.51-1.48-.52-2.41-.51-1.56-.02-2.67,0-3.61,2.19-.03.08-.06.16-.07.25-.09.86.1,1.39.41,2.07.62,1.34,2.2,1.45,3.27,2.36,1.07-.91,2.63-1.02,3.25-2.36.31-.68.5-1.21.41-2.07Z"/>
  </g>
  <path class="cls-1" d="m9.68,21.58c0,.08-.18.14-.54.19-.36.05-.72.07-1.09.07s-.6-.02-.7-.06c-.1-.04-.16-.11-.16-.2v-5.72c0-.15.19-.26.58-.33.39-.07.88-.1,1.47-.1s.98,0,1.15,0c.17,0,.38.01.62.03.24.02.43.05.56.09.14.04.29.09.46.16.17.07.3.15.4.25.09.1.19.23.28.37.16.25.24.62.24,1.09s-.08.87-.24,1.19c-.16.32-.37.57-.63.73.68,1.07.89,1.65.71,1.89s-.28.59-1.44.59c-.34,0-.57-.01-.7-.04-.13-.03-.21-.09-.25-.2l-.58-1.83h-.15s0,1.81,0,1.81Zm0-3.19h.23c.34,0,.52-.27.52-.8,0-.27-.05-.47-.14-.58-.09-.11-.2-.17-.32-.17h-.29v1.55Z"/>
  <path class="cls-1" d="m16.38,17.38c-.15.08-.44.1-.89.11h-1.47c-.29,0-.49-.02-.59-.06-.1-.04-.15-.11-.15-.2v-5.63c0-.15.07-.26.21-.33.14-.07.39-.1.75-.1h3.57c.12,0,.19.21.19.62s-.03.73-.08.94c-.05.22-.12.32-.21.32-.34,0-.89-.03-1.65-.09-.16-.01-.29.11-.29.27v.02c0,.15.13.28.28.27.72-.03,1.2-.04,1.43-.04.16,0,.24.19.24.56s-.03.66-.09.85c-.06.19-.15.29-.25.29l-1.33-.03c-.15,0-.28.12-.28.27h0c0,.16.13.28.29.27.87-.06,1.49-.09,1.84-.09.12,0,.19.02.19.44s-.15.64-.38.72-.69.29-1.33.62Z"/>
  <path class="cls-1" d="m21.94,16.57c-.36.04-.72,0-1.09,0s-.6-.1-.7-.14c-.1-.03-.15-.09-.15-.16v-3.68h-1.24c-.07,0-.12-.08-.17-.25-.05-.17-.07-.41-.07-.74s.04-.63.11-.89c.07-.26.17-.4.28-.4h4.81c.09,0,.15.08.18.25.03.17.05.41.05.72s-.03.61-.1.89c-.07.28-.15.42-.27.42h-1.11v3.82c0,.07-.18.12-.55.16Z"/>
  <path class="cls-1" d="m25.01,15.74c-.26.08-.5.07-.52-.09v-6.76c0-.15.19-.26.58-.33.39-.07.88-.1,1.47-.1s.98,0,1.15,0c.17,0,.38.01.62.03.24.02.43.05.56.09.14.04.29.09.46.16.17.07.3.15.4.25.09.1.19.23.28.37.16.25.24.62.24,1.09s-.08.87-.24,1.19c-.16.32-.37.57-.63.73.68,1.07,1.02,1.75,1.02,2.04s-.58.44-1.75.44c-.34,0-.57-.01-.7-.04-.13-.03-.21-.09-.25-.2l-.58-1.83h-.15s0,2.27,0,2.27c0,.08-.24.1-.59.2m.59-3.85h.23c.34,0,.52-.27.52-.8,0-.27-.05-.47-.14-.58-.09-.11-.2-.17-.32-.17h-.29v1.55Z"/>
  <path class="cls-1" d="m33.21,14.44c.08-.34.96-2.64-.27-2.63-1.02,0-1.71,2.13-1.56,2.52.1.25-.26.16-.26.09v-5.53c0-.13.17-.26.52-.39.34-.13.73-.19,1.16-.19.38,0,.73.06.85.22.04.06.06.12.06.18l.15,5.74c0,.18-.74.37-.65,0Z"/>
  <path class="cls-1" d="m38.56,15.43l-1.54-.28s-.58-.09-.61-.09c-.26-.03-1.41-.17-1.53-.18-.28-.03-.44-.02-.54-.07-.1-.04-.15-.11-.15-.2v-5.2c0-.15.07-.26.21-.33.14-.07.39-.1.75-.1h3.57c.12,0,.19.21.19.62s-.03.73-.08.94c-.05.22-.12.32-.21.32-.34,0-.89-.03-1.65-.09-.16-.01-.29.11-.29.27v.02c0,.15.13.28.28.27.72-.03,1.2-.04,1.43-.04.16,0,.24.19.24.56s-.03.66-.09.85c-.06.19-.15.29-.25.29l-1.33-.03c-.15,0-.28.12-.28.27h0c0,.16.13.28.29.27.87-.06,1.49-.09,1.84-.09.12,0,.19.21.19.62s-.03.89-.08,1.1c-.05.21-.15.35-.34.3Z"/>
  <path class="cls-1" d="m38.98,11.39c0-.07.08-.16.23-.25.15-.1.37-.19.65-.26.28-.08.59-.12.92-.12s.57.05.73.14c.15.09.24.2.25.31l.31,3.24h.12l.28-3.16c.02-.17.22-.3.6-.39.39-.09.74-.14,1.08-.14s.58.03.74.08c.16.06.26.11.31.17.04.06.07.11.07.16s-.04.19-.13.42c-.09.23-.18.47-.27.73-.31.83-.93,1.99-1.67,4.13-.24.31-.49.41-1.45.41-.3,0-.42-.1-.57-.22-.08-.07-.17-.25-.21-.35-.35-1.01-.77-1.66-1.26-2.94-.49-1.28-.73-1.94-.73-1.97Z"/>
  <path class="cls-1" d="m50.07,18.01l-3.43-1.18c-.3-.09-.61-.16-.86-.35-.09-.06-.11-.5-.11-.59l-.11-3.77c0-.15.07-.26.21-.33.14-.07.39-.1.75-.1h3.57c.12,0,.19.21.19.62s-.03.73-.08.94c-.05.22-.12.32-.21.32-.39,0-1.03-.04-1.95-.12v.6c.88-.04,1.45-.05,1.72-.05.16,0,.24.19.24.56s-.03.66-.09.85c-.06.19-.15.29-.25.29l-1.61-.04v.57c1.03-.08,1.74-.12,2.13-.12.12,0,.19.21.19.62s-.03.73-.08.94c-.05.21-.12.32-.21.32Z"/>
  <path class="cls-1" d="m53.37,21.72c0,.08-.18.14-.54.19-.36.05-.53-.04-.87-.18-.57-.24-.82-.77-1.04-1.14-.06-.1-.04-.27-.04-.76v-3.82c0-.15.19-.26.58-.33.39-.07.88-.1,1.47-.1s.98,0,1.15,0c.17,0,.38.01.62.03.24.02.43.05.56.09.14.04.29.09.46.16.17.07.3.15.4.25.09.1.19.23.28.37.16.25.24.62.24,1.09s-.08.87-.24,1.19c-.16.32-.37.57-.63.73.68,1.07,1.02,1.75,1.02,2.04s-.58.44-1.75.44c-.34,0-.57-.01-.7-.04-.13-.03-.21-.09-.25-.2l-.58-1.83h-.15s0,1.81,0,1.81Zm0-3.19h.23c.34,0,.52-.27.52-.8,0-.27-.05-.47-.14-.58-.09-.11-.2-.17-.32-.17h-.29v1.55Z"/>
</svg>