<svg xmlns="http://www.w3.org/2000/svg" xmlns:xlink="http://www.w3.org/1999/xlink" width="500" zoomAndPan="magnify" viewBox="0 0 375 374.999991" height="500" preserveAspectRatio="xMidYMid meet" version="1.0"><defs><clipPath id="9989f8b8d2"><path d="M 0 0 L 156.96875 0 L 156.96875 194.199219 L 0 194.199219 Z M 0 0 " clip-rule="nonzero"/></clipPath><clipPath id="9f1a58f209"><path d="M 0 0 L 156.75 0 L 156.75 194.25 L 0 194.25 Z M 0 0 " clip-rule="nonzero"/></clipPath><clipPath id="7abf252ec7"><path d="M 0 191.019531 L 156.96875 191.019531 L 156.96875 246.941406 L 0 246.941406 Z M 0 191.019531 " clip-rule="nonzero"/></clipPath><clipPath id="2985885927"><path d="M 0 191.019531 L 156.75 191.019531 L 156.75 247.269531 L 0 247.269531 Z M 0 191.019531 " clip-rule="nonzero"/></clipPath><clipPath id="69678c4023"><path d="M 0 244.589844 L 205.558594 244.589844 L 205.558594 375 L 0 375 Z M 0 244.589844 " clip-rule="nonzero"/></clipPath><clipPath id="350ad9227e"><path d="M 0 244.589844 L 205.5 244.589844 L 205.5 375 L 0 375 Z M 0 244.589844 " clip-rule="nonzero"/></clipPath><clipPath id="4b2b87a3e9"><path d="M 202.230469 211.332031 L 375 211.332031 L 375 374.980469 L 202.230469 374.980469 Z M 202.230469 211.332031 " clip-rule="nonzero"/></clipPath><clipPath id="f9c65a8075"><path d="M 202.234375 211.332031 L 374.722656 211.332031 L 374.722656 374.832031 L 202.234375 374.832031 Z M 202.234375 211.332031 " clip-rule="nonzero"/></clipPath><clipPath id="fc8b782489"><path d="M 293.695312 186.902344 L 375 186.902344 L 375 214.332031 L 293.695312 214.332031 Z M 293.695312 186.902344 " clip-rule="nonzero"/></clipPath><clipPath id="56a8094470"><path d="M 293.703125 186.902344 L 374.691406 186.902344 L 374.691406 214.652344 L 293.703125 214.652344 Z M 293.703125 186.902344 " clip-rule="nonzero"/></clipPath><clipPath id="6438fdc69b"><path d="M 153.878906 211.332031 L 205.558594 211.332031 L 205.558594 246.941406 L 153.878906 246.941406 Z M 153.878906 211.332031 " clip-rule="nonzero"/></clipPath><clipPath id="17a281742b"><path d="M 153.886719 211.332031 L 205.621094 211.332031 L 205.621094 246.582031 L 153.886719 246.582031 Z M 153.886719 211.332031 " clip-rule="nonzero"/></clipPath></defs><g clip-path="url(#9989f8b8d2)"><path fill="#ffffff" d="M 0 0 L 156.96875 0 L 156.96875 194.199219 L 0 194.199219 Z M 0 0 " fill-opacity="1" fill-rule="nonzero"/></g><g clip-path="url(#9f1a58f209)"><path stroke-linecap="butt" transform="matrix(0.748992, 0, 0, 0.750226, 0.0000512289, 0.000000000000021316)" fill="none" stroke-linejoin="miter" d="M -0.0000683971 -0.000000000000028413 L 209.281199 -0.000000000000028413 L 209.281199 258.92191 L -0.0000683971 258.92191 Z M -0.0000683971 -0.000000000000028413 " stroke="#000000" stroke-width="8" stroke-opacity="1" stroke-miterlimit="4"/></g><g clip-path="url(#7abf252ec7)"><path fill="#ffffff" d="M 0 191.019531 L 156.96875 191.019531 L 156.96875 246.941406 L 0 246.941406 Z M 0 191.019531 " fill-opacity="1" fill-rule="nonzero"/></g><g clip-path="url(#2985885927)"><path stroke-linecap="butt" transform="matrix(0.748992, 0, 0, 0.754401, 0.0000816659, 191.017838)" fill="none" stroke-linejoin="miter" d="M -0.000109034 0.00224469 L 209.281179 0.00224469 L 209.281179 74.56475 L -0.000109034 74.56475 Z M -0.000109034 0.00224469 " stroke="#000000" stroke-width="8" stroke-opacity="1" stroke-miterlimit="4"/></g><g clip-path="url(#69678c4023)"><path fill="#ffffff" d="M 0 244.589844 L 205.558594 244.589844 L 205.558594 375 L 0 375 Z M 0 244.589844 " fill-opacity="1" fill-rule="nonzero"/></g><g clip-path="url(#350ad9227e)"><path stroke-linecap="butt" transform="matrix(0.749829, 0, 0, 0.750539, 0.0000045, 244.588959)" fill="none" stroke-linejoin="miter" d="M -0.00000600137 0.00117863 L 274.062507 0.00117863 L 274.062507 173.870985 L -0.00000600137 173.870985 Z M -0.00000600137 0.00117863 " stroke="#000000" stroke-width="8" stroke-opacity="1" stroke-miterlimit="4"/></g><g clip-path="url(#4b2b87a3e9)"><path fill="#ffffff" d="M 202.230469 211.332031 L 375 211.332031 L 375 374.980469 L 202.230469 374.980469 Z M 202.230469 211.332031 " fill-opacity="1" fill-rule="nonzero"/></g><g clip-path="url(#f9c65a8075)"><path stroke-linecap="butt" transform="matrix(0.74883, 0, 0, 0.749355, 202.235674, 211.330225)" fill="none" stroke-linejoin="miter" d="M -0.00173527 0.00241104 L 230.342006 0.00241104 L 230.342006 218.189913 L -0.00173527 218.189913 Z M -0.00173527 0.00241104 " stroke="#000000" stroke-width="8" stroke-opacity="1" stroke-miterlimit="4"/></g><g clip-path="url(#fc8b782489)"><path fill="#ffffff" d="M 293.695312 186.902344 L 375 186.902344 L 375 214.332031 L 293.695312 214.332031 Z M 293.695312 186.902344 " fill-opacity="1" fill-rule="nonzero"/></g><g clip-path="url(#56a8094470)"><path stroke-linecap="butt" transform="matrix(0.747297, 0, 0, 0.758974, 293.702534, 186.901908)" fill="none" stroke-linejoin="miter" d="M 0.000790832 0.00057449 L 108.375746 0.00057449 L 108.375746 36.563075 L 0.000790832 36.563075 Z M 0.000790832 0.00057449 " stroke="#000000" stroke-width="8" stroke-opacity="1" stroke-miterlimit="4"/></g><g clip-path="url(#6438fdc69b)"><path fill="#ffffff" d="M 153.878906 211.332031 L 205.558594 211.332031 L 205.558594 246.941406 L 153.878906 246.941406 Z M 153.878906 211.332031 " fill-opacity="1" fill-rule="nonzero"/></g><g clip-path="url(#17a281742b)"><path stroke-linecap="butt" transform="matrix(0.75102, 0, 0, 0.742594, 153.88479, 211.330225)" fill="none" stroke-linejoin="miter" d="M 0.00256765 0.002433 L 68.888017 0.002433 L 68.888017 47.471187 L 0.00256765 47.471187 Z M 0.00256765 0.002433 " stroke="#000000" stroke-width="8" stroke-opacity="1" stroke-miterlimit="4"/></g></svg>