<svg xmlns="http://www.w3.org/2000/svg" xmlns:xlink="http://www.w3.org/1999/xlink" width="250" zoomAndPan="magnify" viewBox="0 0 187.5 30.000001" height="40" preserveAspectRatio="xMidYMid meet" version="1.0"><defs><g/><clipPath id="cd8346fcd8"><path d="M 2.78125 0 L 29 0 L 29 29.03125 L 2.78125 29.03125 Z M 2.78125 0 " clip-rule="nonzero"/></clipPath><clipPath id="bf511044ba"><path d="M 28 1 L 29.976562 1 L 29.976562 4 L 28 4 Z M 28 1 " clip-rule="nonzero"/></clipPath><clipPath id="ced84463d8"><path d="M 2.78125 18 L 28 18 L 28 28 L 2.78125 28 Z M 2.78125 18 " clip-rule="nonzero"/></clipPath><clipPath id="209b040df1"><path d="M 2.78125 3 L 16 3 L 16 24 L 2.78125 24 Z M 2.78125 3 " clip-rule="nonzero"/></clipPath><clipPath id="4275be04d2"><path d="M 154.226562 1 L 176.785156 1 L 176.785156 28 L 154.226562 28 Z M 154.226562 1 " clip-rule="nonzero"/></clipPath><clipPath id="4485f9a975"><path d="M 154.226562 1 L 176.785156 1 L 176.785156 28 L 154.226562 28 Z M 154.226562 1 " clip-rule="nonzero"/></clipPath></defs><g clip-path="url(#cd8346fcd8)"><path fill="#fce0a2" d="M 11.441406 -3.105469 C 10.867188 -3.105469 10.292969 -3.078125 9.722656 -3.023438 C 9.148438 -2.964844 8.582031 -2.882812 8.019531 -2.769531 C 7.457031 -2.65625 6.898438 -2.519531 6.351562 -2.351562 C 5.800781 -2.183594 5.261719 -1.992188 4.730469 -1.769531 C 4.199219 -1.550781 3.679688 -1.304688 3.171875 -1.035156 C 2.667969 -0.765625 2.175781 -0.46875 1.699219 -0.152344 C 1.21875 0.167969 0.757812 0.511719 0.316406 0.875 C -0.128906 1.238281 -0.554688 1.625 -0.960938 2.03125 C -1.367188 2.4375 -1.75 2.863281 -2.117188 3.304688 C -2.480469 3.75 -2.824219 4.210938 -3.140625 4.6875 C -3.460938 5.164062 -3.753906 5.65625 -4.027344 6.164062 C -4.296875 6.671875 -4.542969 7.191406 -4.761719 7.71875 C -4.980469 8.25 -5.175781 8.792969 -5.34375 9.339844 C -5.507812 9.890625 -5.648438 10.445312 -5.761719 11.011719 C -5.871094 11.574219 -5.957031 12.140625 -6.011719 12.714844 C -6.070312 13.285156 -6.097656 13.859375 -6.097656 14.433594 C -6.097656 15.007812 -6.070312 15.578125 -6.011719 16.152344 C -5.957031 16.722656 -5.871094 17.289062 -5.761719 17.855469 C -5.648438 18.417969 -5.507812 18.972656 -5.34375 19.523438 C -5.175781 20.074219 -4.980469 20.613281 -4.761719 21.144531 C -4.542969 21.675781 -4.296875 22.191406 -4.027344 22.699219 C -3.753906 23.207031 -3.460938 23.699219 -3.140625 24.175781 C -2.824219 24.652344 -2.480469 25.113281 -2.117188 25.558594 C -1.75 26.003906 -1.367188 26.425781 -0.960938 26.832031 C -0.554688 27.238281 -0.128906 27.625 0.316406 27.988281 C 0.757812 28.355469 1.21875 28.695312 1.699219 29.015625 C 2.175781 29.332031 2.667969 29.628906 3.171875 29.898438 C 3.679688 30.171875 4.199219 30.414062 4.730469 30.636719 C 5.261719 30.855469 5.800781 31.046875 6.351562 31.214844 C 6.898438 31.382812 7.457031 31.519531 8.019531 31.632812 C 8.582031 31.746094 9.148438 31.828125 9.722656 31.886719 C 10.292969 31.941406 10.867188 31.96875 11.441406 31.96875 C 12.015625 31.96875 12.589844 31.941406 13.160156 31.886719 C 13.730469 31.828125 14.300781 31.746094 14.863281 31.632812 C 15.425781 31.519531 15.984375 31.382812 16.53125 31.214844 C 17.082031 31.046875 17.621094 30.855469 18.152344 30.636719 C 18.683594 30.414062 19.203125 30.171875 19.707031 29.898438 C 20.214844 29.628906 20.707031 29.332031 21.183594 29.015625 C 21.664062 28.695312 22.125 28.355469 22.566406 27.988281 C 23.011719 27.625 23.4375 27.238281 23.84375 26.832031 C 24.25 26.425781 24.632812 26.003906 25 25.558594 C 25.363281 25.113281 25.703125 24.652344 26.023438 24.175781 C 26.34375 23.699219 26.636719 23.207031 26.910156 22.699219 C 27.179688 22.191406 27.425781 21.675781 27.644531 21.144531 C 27.863281 20.613281 28.058594 20.074219 28.222656 19.523438 C 28.390625 18.972656 28.53125 18.417969 28.640625 17.855469 C 28.753906 17.289062 28.839844 16.722656 28.894531 16.152344 C 28.953125 15.578125 28.980469 15.007812 28.980469 14.433594 C 28.980469 13.859375 28.953125 13.285156 28.894531 12.714844 C 28.839844 12.140625 28.753906 11.574219 28.640625 11.011719 C 28.53125 10.445312 28.390625 9.890625 28.222656 9.339844 C 28.058594 8.792969 27.863281 8.25 27.644531 7.71875 C 27.425781 7.191406 27.179688 6.671875 26.910156 6.164062 C 26.636719 5.65625 26.34375 5.164062 26.023438 4.6875 C 25.703125 4.210938 25.363281 3.75 25 3.304688 C 24.632812 2.863281 24.25 2.4375 23.84375 2.03125 C 23.4375 1.625 23.011719 1.238281 22.566406 0.875 C 22.125 0.511719 21.664062 0.167969 21.183594 -0.152344 C 20.707031 -0.46875 20.214844 -0.765625 19.707031 -1.035156 C 19.203125 -1.304688 18.683594 -1.550781 18.152344 -1.769531 C 17.621094 -1.992188 17.082031 -2.183594 16.53125 -2.351562 C 15.984375 -2.519531 15.425781 -2.65625 14.863281 -2.769531 C 14.300781 -2.882812 13.730469 -2.964844 13.160156 -3.023438 C 12.589844 -3.078125 12.015625 -3.105469 11.441406 -3.105469 Z M 11.441406 -3.105469 " fill-opacity="1" fill-rule="nonzero"/></g><g clip-path="url(#bf511044ba)"><path fill="#ee3e54" d="M 28.980469 1.160156 C 28.71875 1.160156 28.492188 1.253906 28.308594 1.4375 C 28.125 1.621094 28.03125 1.847656 28.03125 2.109375 C 28.03125 2.371094 28.125 2.59375 28.308594 2.777344 C 28.492188 2.964844 28.71875 3.054688 28.980469 3.054688 C 29.242188 3.054688 29.464844 2.964844 29.648438 2.777344 C 29.835938 2.59375 29.925781 2.371094 29.925781 2.109375 C 29.925781 1.847656 29.835938 1.621094 29.648438 1.4375 C 29.464844 1.253906 29.242188 1.160156 28.980469 1.160156 Z M 28.980469 1.160156 " fill-opacity="1" fill-rule="nonzero"/></g><g clip-path="url(#ced84463d8)"><path fill="#fbcd59" d="M 26.136719 25.808594 C 25.875 25.808594 25.648438 25.902344 25.464844 26.085938 C 25.28125 26.269531 25.1875 26.496094 25.1875 26.757812 C 25.1875 27.019531 25.28125 27.242188 25.464844 27.425781 C 25.648438 27.613281 25.875 27.703125 26.136719 27.703125 C 26.398438 27.703125 26.621094 27.613281 26.804688 27.425781 C 26.992188 27.242188 27.082031 27.019531 27.082031 26.757812 C 27.082031 26.496094 26.992188 26.269531 26.804688 26.085938 C 26.621094 25.902344 26.398438 25.808594 26.136719 25.808594 Z M -5.148438 18.699219 C -5.402344 18.699219 -5.640625 18.746094 -5.875 18.84375 C -6.105469 18.9375 -6.3125 19.074219 -6.488281 19.253906 C -6.667969 19.429688 -6.804688 19.636719 -6.902344 19.867188 C -6.996094 20.101562 -7.046875 20.34375 -7.046875 20.59375 C -7.046875 20.84375 -6.996094 21.085938 -6.902344 21.320312 C -6.804688 21.550781 -6.667969 21.757812 -6.488281 21.933594 C -6.3125 22.113281 -6.105469 22.25 -5.875 22.347656 C -5.640625 22.441406 -5.402344 22.488281 -5.148438 22.488281 C -4.898438 22.488281 -4.65625 22.441406 -4.421875 22.347656 C -4.191406 22.25 -3.984375 22.113281 -3.808594 21.933594 C -3.628906 21.757812 -3.492188 21.550781 -3.398438 21.320312 C -3.300781 21.085938 -3.253906 20.84375 -3.253906 20.59375 C -3.253906 20.34375 -3.300781 20.101562 -3.398438 19.867188 C -3.492188 19.636719 -3.628906 19.429688 -3.808594 19.253906 C -3.984375 19.074219 -4.191406 18.9375 -4.421875 18.84375 C -4.65625 18.746094 -4.898438 18.699219 -5.148438 18.699219 Z M -5.148438 18.699219 " fill-opacity="1" fill-rule="nonzero"/></g><path fill="#ffffff" d="M 25.660156 6.375 C 25.53125 6.375 25.417969 6.421875 25.324219 6.511719 C 25.234375 6.605469 25.1875 6.71875 25.1875 6.847656 C 25.1875 6.980469 25.234375 7.089844 25.324219 7.183594 C 25.417969 7.277344 25.53125 7.320312 25.660156 7.320312 C 25.792969 7.320312 25.902344 7.277344 25.996094 7.183594 C 26.089844 7.089844 26.136719 6.980469 26.136719 6.847656 C 26.136719 6.71875 26.089844 6.605469 25.996094 6.511719 C 25.902344 6.421875 25.792969 6.375 25.660156 6.375 Z M 25.660156 6.375 " fill-opacity="1" fill-rule="nonzero"/><path fill="#00a5a5" d="M 15.691406 5.953125 C 13.890625 3.382812 10.347656 2.757812 7.777344 4.558594 C 5.207031 6.355469 4.582031 9.898438 6.382812 12.46875 C 8.183594 15.039062 11.726562 15.664062 14.296875 13.863281 C 16.867188 12.066406 17.492188 8.523438 15.691406 5.953125 Z M 10.492188 7.617188 C 10.195312 7.617188 7.945312 7.617188 7.648438 7.617188 C 7.222656 7.617188 6.878906 7.273438 6.878906 6.847656 C 6.878906 6.421875 7.222656 6.078125 7.648438 6.078125 C 7.945312 6.078125 10.195312 6.078125 10.492188 6.078125 C 10.917969 6.078125 11.261719 6.421875 11.261719 6.847656 C 11.261719 7.273438 10.917969 7.617188 10.492188 7.617188 Z M 10.492188 7.617188 " fill-opacity="1" fill-rule="nonzero"/><path fill="#ce942b" d="M 16.097656 12.3125 C 16.066406 12.335938 12.355469 14.933594 12.222656 15.027344 C 11.898438 15.253906 11.820312 15.695312 12.046875 16.019531 C 12.273438 16.339844 12.714844 16.417969 13.035156 16.191406 C 13.105469 16.144531 13.753906 15.691406 14.003906 15.515625 L 15.441406 17.566406 L 15.5 17.648438 L 15.480469 17.742188 L 15.382812 18.304688 L 16.140625 18.441406 L 16.371094 18.480469 L 16.332031 18.714844 L 16.199219 19.46875 L 16.953125 19.601562 L 17.1875 19.644531 L 17.144531 19.878906 L 17.011719 20.632812 L 17.769531 20.765625 L 18 20.808594 L 17.960938 21.042969 L 17.828125 21.796875 L 20.207031 22.726562 L 20.210938 22.726562 L 20.214844 22.71875 L 20.210938 20.320312 C 20.210938 20.273438 20.195312 20.226562 20.167969 20.1875 L 15.945312 14.15625 C 15.945312 14.15625 16.785156 13.566406 16.914062 13.476562 C 17.238281 13.253906 17.316406 12.808594 17.089844 12.488281 C 16.863281 12.167969 16.421875 12.089844 16.097656 12.3125 Z M 16.097656 12.3125 " fill-opacity="1" fill-rule="nonzero"/><path fill="#e2ad17" d="M 16.097656 12.3125 C 16.085938 12.324219 15.109375 13.003906 14.449219 13.46875 L 20.210938 21.695312 L 20.207031 20.320312 C 20.207031 20.273438 20.195312 20.226562 20.167969 20.1875 L 15.945312 14.15625 C 15.945312 14.15625 16.785156 13.566406 16.914062 13.476562 C 17.234375 13.253906 17.3125 12.808594 17.089844 12.488281 C 16.863281 12.167969 16.421875 12.089844 16.097656 12.3125 Z M 16.097656 12.3125 " fill-opacity="1" fill-rule="nonzero"/><path fill="#472b29" d="M 15.964844 12.121094 C 15.820312 12.21875 12.183594 14.765625 12.085938 14.835938 C 11.65625 15.136719 11.554688 15.726562 11.851562 16.152344 C 12.152344 16.582031 12.742188 16.6875 13.171875 16.386719 C 13.25 16.332031 13.945312 15.84375 13.945312 15.84375 L 15.25 17.703125 L 15.148438 18.265625 C 15.125 18.394531 15.210938 18.515625 15.339844 18.539062 L 16.097656 18.671875 L 15.964844 19.429688 C 15.941406 19.558594 16.027344 19.679688 16.15625 19.703125 L 16.910156 19.835938 L 16.777344 20.589844 C 16.757812 20.71875 16.84375 20.84375 16.972656 20.867188 L 17.726562 21 L 17.59375 21.753906 C 17.574219 21.867188 17.636719 21.976562 17.742188 22.015625 L 20.125 22.945312 C 20.203125 22.976562 20.285156 22.964844 20.347656 22.921875 C 20.351562 22.917969 20.355469 22.910156 20.359375 22.910156 C 20.382812 22.886719 20.40625 22.859375 20.421875 22.828125 C 20.425781 22.820312 20.429688 22.820312 20.433594 22.8125 C 20.445312 22.777344 20.449219 22.742188 20.445312 22.707031 L 20.445312 20.320312 C 20.445312 20.222656 20.414062 20.128906 20.359375 20.050781 L 16.273438 14.214844 C 16.382812 14.136719 16.910156 13.765625 17.050781 13.671875 C 17.476562 13.371094 17.582031 12.78125 17.28125 12.351562 C 16.980469 11.921875 16.390625 11.820312 15.964844 12.121094 Z M 16.777344 13.28125 L 16.003906 13.828125 C 15.789062 13.976562 15.738281 14.269531 15.886719 14.484375 L 19.972656 20.320312 L 19.972656 22.378906 L 18.09375 21.644531 L 18.234375 20.847656 C 18.257812 20.71875 18.171875 20.597656 18.042969 20.574219 L 17.285156 20.441406 L 17.417969 19.683594 C 17.441406 19.554688 17.355469 19.433594 17.226562 19.410156 L 16.472656 19.277344 L 16.605469 18.523438 C 16.628906 18.394531 16.542969 18.269531 16.414062 18.25 L 15.65625 18.113281 L 15.730469 17.6875 C 15.742188 17.628906 15.730469 17.5625 15.691406 17.511719 L 14.335938 15.574219 C 14.1875 15.359375 13.890625 15.304688 13.675781 15.457031 L 12.902344 16 C 12.6875 16.148438 12.390625 16.097656 12.242188 15.882812 C 12.089844 15.671875 12.144531 15.375 12.355469 15.222656 C 12.394531 15.195312 16.15625 12.566406 16.234375 12.507812 C 16.449219 12.359375 16.746094 12.410156 16.894531 12.625 C 17.042969 12.839844 16.992188 13.132812 16.777344 13.28125 Z M 16.777344 13.28125 " fill-opacity="1" fill-rule="nonzero"/><path fill="#472b29" d="M 16.960938 17.171875 C 16.925781 17.171875 16.890625 17.15625 16.867188 17.125 L 14.828125 14.214844 C 14.789062 14.160156 14.804688 14.085938 14.859375 14.050781 C 14.910156 14.011719 14.984375 14.023438 15.023438 14.078125 L 17.058594 16.988281 C 17.097656 17.039062 17.085938 17.113281 17.03125 17.152344 C 17.011719 17.167969 16.988281 17.171875 16.960938 17.171875 Z M 18.050781 18.726562 C 18.011719 18.726562 17.976562 18.707031 17.953125 18.675781 L 17.542969 18.09375 C 17.507812 18.039062 17.519531 17.964844 17.574219 17.929688 C 17.628906 17.890625 17.703125 17.902344 17.738281 17.957031 L 18.144531 18.539062 C 18.183594 18.59375 18.171875 18.667969 18.117188 18.703125 C 18.097656 18.71875 18.074219 18.726562 18.050781 18.726562 Z M 19.136719 20.277344 C 19.097656 20.277344 19.0625 20.257812 19.039062 20.226562 L 18.632812 19.644531 C 18.59375 19.589844 18.605469 19.515625 18.660156 19.480469 C 18.714844 19.441406 18.789062 19.453125 18.824219 19.507812 L 19.230469 20.089844 C 19.269531 20.144531 19.257812 20.21875 19.203125 20.253906 C 19.183594 20.269531 19.160156 20.277344 19.136719 20.277344 Z M 12.355469 15.222656 L 16.234375 12.507812 C 17.523438 10.472656 17.546875 7.777344 16.078125 5.679688 C 14.128906 2.898438 10.292969 2.21875 7.507812 4.167969 C 4.722656 6.121094 4.046875 9.957031 5.996094 12.742188 C 7.464844 14.839844 10.003906 15.738281 12.355469 15.222656 Z M 7.886719 4.710938 C 10.367188 2.976562 13.796875 3.582031 15.535156 6.0625 C 17.273438 8.542969 16.667969 11.972656 14.1875 13.710938 C 11.707031 15.449219 8.277344 14.84375 6.539062 12.363281 C 4.800781 9.878906 5.40625 6.449219 7.886719 4.710938 Z M 7.886719 4.710938 " fill-opacity="1" fill-rule="nonzero"/><path fill="#472b29" d="M 12.507812 14.726562 L 12.625 14.726562 L 12.625 16.328125 L 12.507812 16.328125 Z M 12.804688 14.492188 L 12.921875 14.492188 L 12.921875 16.269531 L 12.804688 16.269531 Z M 13.101562 14.3125 L 13.21875 14.3125 L 13.21875 15.914062 L 13.101562 15.914062 Z M 13.457031 15.4375 C 13.421875 15.4375 13.394531 15.414062 13.394531 15.378906 L 13.394531 14.078125 C 13.394531 14.042969 13.421875 14.015625 13.457031 14.015625 C 13.488281 14.015625 13.515625 14.042969 13.515625 14.078125 L 13.515625 15.378906 C 13.515625 15.414062 13.488281 15.4375 13.457031 15.4375 Z M 13.75 14.964844 C 13.71875 14.964844 13.691406 14.9375 13.691406 14.90625 L 13.691406 13.898438 C 13.691406 13.867188 13.71875 13.839844 13.75 13.839844 C 13.785156 13.839844 13.8125 13.867188 13.8125 13.898438 L 13.8125 14.90625 C 13.8125 14.9375 13.785156 14.964844 13.75 14.964844 Z M 13.75 14.964844 " fill-opacity="1" fill-rule="nonzero"/><path fill="#ee3e54" d="M 9.070312 4.003906 C 5.929688 4.003906 3.382812 6.550781 3.382812 9.691406 C 3.382812 12.832031 5.929688 15.378906 9.070312 15.378906 C 12.210938 15.378906 14.757812 12.832031 14.757812 9.691406 C 14.757812 6.550781 12.210938 4.003906 9.070312 4.003906 Z M 10.492188 7.617188 C 10.195312 7.617188 7.949219 7.617188 7.648438 7.617188 C 7.222656 7.617188 6.878906 7.273438 6.878906 6.847656 C 6.878906 6.421875 7.222656 6.078125 7.648438 6.078125 C 7.949219 6.078125 10.195312 6.078125 10.492188 6.078125 C 10.917969 6.078125 11.261719 6.421875 11.261719 6.847656 C 11.261719 7.273438 10.917969 7.617188 10.492188 7.617188 Z M 10.492188 7.617188 " fill-opacity="1" fill-rule="nonzero"/><path fill="#db2e4c" d="M 10.375 13.367188 L 7.765625 13.367188 C 6.71875 13.367188 5.871094 12.515625 5.871094 11.46875 L 5.871094 10.757812 C 5.871094 9.710938 6.71875 8.863281 7.765625 8.863281 L 10.375 8.863281 C 11.421875 8.863281 12.269531 9.710938 12.269531 10.757812 L 12.269531 11.46875 C 12.269531 12.515625 11.421875 13.367188 10.375 13.367188 Z M 10.375 13.367188 " fill-opacity="1" fill-rule="nonzero"/><path fill="#f1bc19" d="M 11.441406 15.144531 C 11.402344 15.144531 6.867188 15.144531 6.699219 15.144531 C 6.308594 15.144531 5.988281 15.460938 5.988281 15.855469 C 5.988281 16.246094 6.308594 16.566406 6.699219 16.566406 C 6.785156 16.566406 7.578125 16.566406 7.886719 16.566406 L 7.886719 19.171875 L 7.816406 19.242188 L 7.410156 19.644531 L 7.957031 20.1875 L 8.121094 20.355469 L 7.957031 20.523438 L 7.410156 21.066406 L 8.121094 21.777344 L 7.957031 21.945312 L 7.410156 22.488281 L 7.957031 23.035156 L 8.121094 23.203125 L 7.410156 23.914062 L 8.832031 26.042969 L 8.839844 26.039062 L 10.214844 24.070312 C 10.242188 24.03125 10.257812 23.984375 10.257812 23.933594 L 10.257812 16.566406 C 10.257812 16.566406 11.285156 16.566406 11.441406 16.566406 C 11.832031 16.566406 12.152344 16.246094 12.152344 15.855469 C 12.152344 15.460938 11.832031 15.144531 11.441406 15.144531 Z M 11.441406 15.144531 " fill-opacity="1" fill-rule="nonzero"/><path fill="#fbcd59" d="M 11.441406 15.144531 C 11.425781 15.144531 10.234375 15.144531 9.425781 15.144531 L 9.425781 25.195312 L 10.214844 24.070312 C 10.242188 24.03125 10.257812 23.984375 10.257812 23.933594 L 10.257812 16.566406 C 10.257812 16.566406 11.285156 16.566406 11.441406 16.566406 C 11.832031 16.566406 12.152344 16.246094 12.152344 15.855469 C 12.152344 15.460938 11.832031 15.144531 11.441406 15.144531 Z M 11.441406 15.144531 " fill-opacity="1" fill-rule="nonzero"/><path fill="#472b29" d="M 11.441406 14.90625 C 11.269531 14.90625 6.824219 14.90625 6.699219 14.90625 C 6.175781 14.90625 5.753906 15.332031 5.753906 15.855469 C 5.753906 16.378906 6.175781 16.800781 6.699219 16.800781 C 6.796875 16.800781 7.648438 16.800781 7.648438 16.800781 L 7.648438 19.074219 L 7.246094 19.480469 C 7.152344 19.570312 7.152344 19.722656 7.246094 19.8125 L 7.789062 20.355469 L 7.246094 20.898438 C 7.152344 20.992188 7.152344 21.144531 7.246094 21.234375 L 7.789062 21.777344 L 7.246094 22.320312 C 7.152344 22.414062 7.152344 22.566406 7.246094 22.65625 L 7.789062 23.199219 L 7.246094 23.742188 C 7.164062 23.824219 7.152344 23.949219 7.214844 24.042969 L 8.636719 26.175781 C 8.683594 26.246094 8.757812 26.28125 8.835938 26.28125 C 8.839844 26.28125 8.84375 26.277344 8.847656 26.277344 C 8.882812 26.273438 8.917969 26.265625 8.949219 26.246094 C 8.953125 26.246094 8.960938 26.246094 8.964844 26.242188 C 8.996094 26.222656 9.019531 26.195312 9.035156 26.164062 L 10.40625 24.207031 C 10.464844 24.125 10.492188 24.03125 10.492188 23.933594 L 10.492188 16.800781 C 10.625 16.800781 11.269531 16.800781 11.441406 16.800781 C 11.964844 16.800781 12.390625 16.378906 12.390625 15.855469 C 12.390625 15.332031 11.964844 14.90625 11.441406 14.90625 Z M 11.441406 16.328125 L 10.492188 16.328125 C 10.230469 16.328125 10.019531 16.539062 10.019531 16.800781 L 10.019531 23.933594 L 8.835938 25.621094 L 7.71875 23.941406 L 8.289062 23.367188 C 8.382812 23.277344 8.382812 23.125 8.289062 23.035156 L 7.746094 22.488281 L 8.289062 21.945312 C 8.382812 21.855469 8.382812 21.703125 8.289062 21.613281 L 7.746094 21.066406 L 8.289062 20.523438 C 8.382812 20.433594 8.382812 20.28125 8.289062 20.191406 L 7.746094 19.644531 L 8.054688 19.339844 C 8.097656 19.296875 8.121094 19.234375 8.121094 19.171875 L 8.121094 16.800781 C 8.121094 16.539062 7.910156 16.328125 7.648438 16.328125 L 6.699219 16.328125 C 6.441406 16.328125 6.226562 16.117188 6.226562 15.855469 C 6.226562 15.59375 6.441406 15.378906 6.699219 15.378906 C 6.75 15.378906 11.34375 15.378906 11.441406 15.378906 C 11.703125 15.378906 11.914062 15.59375 11.914062 15.855469 C 11.914062 16.117188 11.703125 16.328125 11.441406 16.328125 Z M 11.441406 16.328125 " fill-opacity="1" fill-rule="nonzero"/><g clip-path="url(#209b040df1)"><path fill="#472b29" d="M 9.425781 19.644531 C 9.359375 19.644531 9.308594 19.59375 9.308594 19.527344 L 9.308594 15.972656 C 9.308594 15.90625 9.359375 15.855469 9.425781 15.855469 C 9.492188 15.855469 9.546875 15.90625 9.546875 15.972656 L 9.546875 19.527344 C 9.546875 19.59375 9.492188 19.644531 9.425781 19.644531 Z M 9.425781 21.542969 C 9.359375 21.542969 9.308594 21.488281 9.308594 21.421875 L 9.308594 20.710938 C 9.308594 20.648438 9.359375 20.59375 9.425781 20.59375 C 9.492188 20.59375 9.546875 20.648438 9.546875 20.710938 L 9.546875 21.421875 C 9.546875 21.488281 9.492188 21.542969 9.425781 21.542969 Z M 9.425781 23.4375 C 9.359375 23.4375 9.308594 23.386719 9.308594 23.320312 L 9.308594 22.609375 C 9.308594 22.542969 9.359375 22.488281 9.425781 22.488281 C 9.492188 22.488281 9.546875 22.542969 9.546875 22.609375 L 9.546875 23.320312 C 9.546875 23.386719 9.492188 23.4375 9.425781 23.4375 Z M 6.699219 15.378906 L 11.441406 15.378906 C 13.667969 14.449219 15.234375 12.253906 15.234375 9.691406 C 15.234375 6.289062 12.472656 3.53125 9.070312 3.53125 C 5.667969 3.53125 2.910156 6.289062 2.910156 9.691406 C 2.910156 12.253906 4.472656 14.449219 6.699219 15.378906 Z M 9.070312 4.195312 C 12.101562 4.195312 14.570312 6.660156 14.570312 9.691406 C 14.570312 12.722656 12.101562 15.191406 9.070312 15.191406 C 6.039062 15.191406 3.574219 12.722656 3.574219 9.691406 C 3.574219 6.660156 6.039062 4.195312 9.070312 4.195312 Z M 9.070312 4.195312 " fill-opacity="1" fill-rule="nonzero"/></g><path fill="#472b29" d="M 10.492188 7.796875 L 7.648438 7.796875 C 7.125 7.796875 6.699219 7.371094 6.699219 6.847656 C 6.699219 6.324219 7.125 5.898438 7.648438 5.898438 L 10.492188 5.898438 C 11.015625 5.898438 11.441406 6.324219 11.441406 6.847656 C 11.441406 7.371094 11.015625 7.796875 10.492188 7.796875 Z M 7.648438 6.253906 C 7.324219 6.253906 7.054688 6.519531 7.054688 6.847656 C 7.054688 7.175781 7.324219 7.441406 7.648438 7.441406 L 10.492188 7.441406 C 10.820312 7.441406 11.085938 7.175781 11.085938 6.847656 C 11.085938 6.519531 10.820312 6.253906 10.492188 6.253906 Z M 12.007812 12.535156 C 11.988281 12.535156 11.964844 12.53125 11.949219 12.519531 C 11.890625 12.488281 11.871094 12.414062 11.90625 12.359375 C 12.070312 12.078125 12.152344 11.777344 12.152344 11.46875 L 12.152344 10.757812 C 12.152344 10.691406 12.207031 10.640625 12.269531 10.640625 C 12.335938 10.640625 12.390625 10.691406 12.390625 10.757812 L 12.390625 11.46875 C 12.390625 11.820312 12.296875 12.160156 12.109375 12.476562 C 12.089844 12.515625 12.046875 12.535156 12.007812 12.535156 Z M 10.375 13.484375 L 7.765625 13.484375 C 6.65625 13.484375 5.753906 12.582031 5.753906 11.46875 L 5.753906 10.757812 C 5.753906 9.648438 6.65625 8.742188 7.765625 8.742188 L 10.375 8.742188 C 11.199219 8.742188 11.929688 9.238281 12.238281 10.003906 C 12.265625 10.0625 12.234375 10.132812 12.175781 10.15625 C 12.113281 10.179688 12.042969 10.152344 12.019531 10.09375 C 11.746094 9.417969 11.101562 8.980469 10.375 8.980469 L 7.765625 8.980469 C 6.789062 8.980469 5.988281 9.777344 5.988281 10.757812 L 5.988281 11.46875 C 5.988281 12.449219 6.789062 13.246094 7.765625 13.246094 L 10.375 13.246094 C 10.441406 13.246094 10.492188 13.300781 10.492188 13.367188 C 10.492188 13.429688 10.441406 13.484375 10.375 13.484375 Z M 10.375 13.484375 " fill-opacity="1" fill-rule="nonzero"/><path fill="#472b29" d="M 9.308594 6.847656 C 9.898438 6.847656 10.429688 6.582031 10.816406 6.152344 C 10.71875 6.105469 10.609375 6.078125 10.492188 6.078125 C 10.453125 6.078125 10.414062 6.078125 10.375 6.078125 C 10.078125 6.335938 9.710938 6.492188 9.308594 6.492188 C 8.328125 6.492188 7.53125 5.589844 7.53125 4.476562 C 7.53125 3.367188 8.328125 2.464844 9.308594 2.464844 C 9.804688 2.464844 10.253906 2.699219 10.578125 3.074219 C 10.71875 3.0625 10.863281 3.058594 11.003906 3.054688 C 10.617188 2.484375 10.003906 2.109375 9.308594 2.109375 C 8.128906 2.109375 7.175781 3.167969 7.175781 4.476562 C 7.175781 5.785156 8.128906 6.847656 9.308594 6.847656 Z M 9.308594 6.847656 " fill-opacity="1" fill-rule="nonzero"/><g clip-path="url(#4275be04d2)"><path fill="#3f3756" d="M 176.015625 19.628906 C 175.664062 17.425781 174.796875 8.964844 172.570312 8.425781 C 168.382812 7.617188 169.234375 9.589844 168.136719 6.496094 C 167.394531 4.847656 166.671875 2.953125 165.046875 1.988281 C 162.039062 0.296875 158.339844 2.300781 157.605469 5.558594 C 157.207031 7.605469 157.886719 9.671875 158.667969 11.542969 C 158.792969 11.730469 157.671875 12.039062 157.480469 12.210938 C 155.703125 13.066406 154.644531 14.097656 154.902344 16.210938 C 155.300781 18.910156 156.363281 25.753906 158.621094 27.238281 C 163.777344 29.40625 169.269531 25.402344 173.886719 23.289062 C 175.769531 22.265625 176.304688 21.890625 176.015625 19.628906 Z M 165.835938 9.117188 C 164.304688 9.3125 162.769531 10.136719 161.371094 10.558594 C 160.980469 9.390625 160.570312 8.199219 160.539062 6.957031 C 160.40625 5.566406 161.886719 3.699219 163.324219 4.570312 C 164.214844 5.1875 164.683594 6.230469 165.113281 7.191406 C 165.136719 7.421875 166.136719 9.253906 165.835938 9.117188 Z M 165.835938 9.117188 " fill-opacity="1" fill-rule="nonzero"/></g><path fill="#d86358" d="M 163.296875 27.574219 C 165.316406 26.828125 174.476562 23.621094 175.796875 21.609375 C 176.070312 20.648438 175.273438 15.109375 174.773438 13.414062 C 174.273438 11.71875 173.753906 8.773438 172.503906 8.886719 C 170.570312 9.371094 160.863281 12.109375 160.53125 14.28125 C 160.269531 15.703125 160.847656 19.300781 160.847656 19.300781 C 161.132812 20.097656 162.097656 26.777344 163.296875 27.574219 Z M 163.296875 27.574219 " fill-opacity="1" fill-rule="nonzero"/><path fill="#c8453b" d="M 160.585938 17.277344 C 163.136719 23.007812 167.40625 25.886719 173.882812 23.082031 C 173.609375 23.339844 164.652344 27.535156 163.164062 27.507812 C 163.164062 27.507812 162.078125 25.394531 161.496094 22.316406 C 160.917969 19.238281 160.585938 17.277344 160.585938 17.277344 Z M 160.585938 17.277344 " fill-opacity="1" fill-rule="nonzero"/><path fill="#e07f75" d="M 161.796875 12.933594 C 162.398438 12.765625 171.527344 9.5 172.800781 9.632812 C 173.691406 9.777344 175.542969 21.972656 175.316406 22.15625 C 176.773438 22.078125 174.132812 8.65625 172.730469 8.902344 C 171.246094 9.261719 163.234375 11.761719 161.796875 12.933594 Z M 161.796875 12.933594 " fill-opacity="1" fill-rule="nonzero"/><path fill="#e1a965" d="M 155.480469 14.109375 C 154.238281 15.332031 157.511719 26.429688 158.042969 26.640625 C 158.4375 27.320312 162.542969 27.847656 163.164062 27.507812 C 162.109375 25.332031 159.039062 15.019531 161.1875 13.246094 C 163.914062 11.621094 169.976562 9.535156 172.503906 8.765625 C 172.503906 8.765625 171.828125 8.472656 170.578125 8.523438 C 169.328125 8.570312 168.828125 8.625 168.828125 8.625 C 168.398438 9.820312 167.011719 10.210938 166.066406 9.308594 L 161.179688 10.890625 C 161.179688 10.890625 161.421875 12.65625 160.265625 12.558594 C 159.109375 12.460938 158.976562 11.757812 158.976562 11.757812 C 158.976562 11.757812 155.816406 13.175781 155.480469 14.109375 Z M 155.480469 14.109375 " fill-opacity="1" fill-rule="nonzero"/><path fill="#7facc6" d="M 160.886719 1.957031 C 156.503906 3.96875 157.429688 9.121094 159.527344 12.367188 C 160.125 12.613281 161.074219 12.363281 161.1875 11.554688 C 161.1875 11.554688 160.167969 7.273438 160.222656 6.621094 C 160.277344 5.96875 160.9375 4.074219 162.101562 4.007812 C 164.671875 3.660156 165.851562 8.339844 166.375 9.410156 C 167.230469 10.113281 168.578125 9.773438 168.699219 8.519531 C 167.527344 5.265625 165.796875 0.390625 160.886719 1.957031 Z M 160.886719 1.957031 " fill-opacity="1" fill-rule="nonzero"/><path fill="#6090b0" d="M 159.003906 3.550781 C 159.003906 3.550781 158.128906 5.558594 158.660156 7.292969 C 159.386719 9.398438 159.792969 9.988281 160.875 10.199219 L 161.089844 11.652344 C 161.085938 12.472656 159.816406 12.445312 159.449219 12.234375 C 158.398438 10.820312 156.78125 5.078125 159.003906 3.550781 Z M 159.003906 3.550781 " fill-opacity="1" fill-rule="nonzero"/><path fill="#6090b0" d="M 162.582031 3.820312 C 166.550781 2.53125 167.1875 11.015625 168.417969 7.957031 C 169.015625 9.476562 167.503906 10.035156 166.445312 9.339844 C 165.746094 7.269531 165.160156 5.019531 162.582031 3.820312 Z M 162.582031 3.820312 " fill-opacity="1" fill-rule="nonzero"/><path fill="#98bdd2" d="M 160.898438 10.367188 C 159.679688 10.015625 159.019531 4.851562 160.820312 4.335938 C 161.601562 3.929688 162.035156 3.90625 162.035156 3.90625 C 159.496094 4.710938 160.578125 8.792969 160.898438 10.367188 Z M 160.898438 10.367188 " fill-opacity="1" fill-rule="nonzero"/><path fill="#d48c46" d="M 155.269531 16.496094 C 155.734375 18.089844 158.410156 23.316406 161.707031 23.300781 L 162.957031 27.554688 C 162.085938 27.53125 158.878906 27.699219 157.921875 26.433594 C 156.722656 25.046875 155.347656 17.851562 155.269531 16.496094 Z M 155.269531 16.496094 " fill-opacity="1" fill-rule="nonzero"/><path fill="#e07f75" d="M 173.03125 20.253906 C 173.113281 19.523438 170.777344 17.703125 170.214844 16.898438 C 170.726562 15.527344 169.917969 13.011719 168.113281 13.410156 L 171.796875 20.691406 L 173.046875 20.269531 Z M 173.03125 20.253906 " fill-opacity="1" fill-rule="nonzero"/><g clip-path="url(#4485f9a975)"><path fill="#3f3756" d="M 176.015625 19.628906 C 175.664062 17.425781 174.796875 8.964844 172.570312 8.425781 C 168.382812 7.617188 169.234375 9.589844 168.136719 6.496094 C 167.394531 4.847656 166.671875 2.953125 165.046875 1.988281 C 162.039062 0.296875 158.339844 2.300781 157.605469 5.558594 C 157.207031 7.605469 157.886719 9.671875 158.667969 11.542969 C 158.792969 11.730469 157.671875 12.039062 157.480469 12.210938 C 155.703125 13.066406 154.644531 14.097656 154.902344 16.210938 C 155.300781 18.910156 156.363281 25.753906 158.621094 27.238281 C 163.777344 29.40625 169.269531 25.402344 173.886719 23.289062 C 175.769531 22.265625 176.304688 21.890625 176.015625 19.628906 Z M 158.292969 8.523438 C 156.886719 4.574219 160.75 0.605469 164.652344 2.375 C 166.617188 3.4375 167.496094 6.207031 168.347656 8.167969 C 168.5625 8.582031 168.511719 9.109375 168.046875 9.316406 C 167.578125 9.539062 166.789062 9.78125 166.558594 9.125 C 165.683594 7.105469 164.667969 2.730469 161.664062 3.949219 C 157.722656 6.277344 162.152344 11.210938 160.660156 12.074219 C 159.726562 12.679688 159.367188 11.820312 159.097656 11.054688 C 158.765625 10.230469 158.488281 9.390625 158.292969 8.523438 Z M 165.835938 9.117188 C 164.304688 9.3125 162.769531 10.136719 161.371094 10.558594 C 160.980469 9.390625 160.570312 8.199219 160.539062 6.957031 C 160.40625 5.566406 161.886719 3.699219 163.324219 4.570312 C 164.214844 5.1875 164.683594 6.230469 165.113281 7.191406 C 165.136719 7.421875 166.136719 9.253906 165.835938 9.117188 Z M 162.726562 27.332031 C 161.375 27.375 159.34375 27.238281 158.269531 26.332031 C 156.8125 23.628906 156.273438 20.5 155.675781 17.511719 C 155.152344 14.023438 155.414062 13.757812 158.601562 12.335938 C 158.75 12.296875 158.96875 12.242188 159.085938 12.339844 C 159.652344 13.109375 160.558594 12.871094 161.089844 12.394531 C 161.855469 11.835938 161.152344 11.167969 161.996094 10.890625 C 162.8125 10.707031 165.800781 9.269531 166.304688 9.773438 C 166.632812 10.257812 167.351562 10.214844 167.828125 9.988281 C 168.316406 9.796875 168.828125 9.496094 168.960938 8.945312 C 169.816406 8.671875 170.941406 8.738281 171.832031 8.851562 C 168.535156 9.824219 165.253906 10.976562 162.128906 12.410156 C 160.011719 13.402344 160.121094 14.695312 160.363281 16.757812 C 160.9375 20.300781 161.3125 24.03125 162.726562 27.332031 Z M 175.527344 21.578125 C 175.339844 22.011719 174.808594 22.167969 174.4375 22.410156 C 173.667969 22.828125 172.898438 23.253906 172.101562 23.621094 C 169.273438 24.925781 166.4375 26.339844 163.449219 27.222656 C 162.4375 27.179688 161.558594 21.199219 161.292969 20.105469 C 161.109375 17.800781 159.277344 14.140625 162.074219 12.925781 C 164.914062 11.464844 168.007812 10.515625 171.027344 9.492188 C 171.613281 9.367188 172.269531 9.027344 172.859375 9.148438 C 173.539062 9.726562 173.625 10.703125 173.875 11.507812 C 174.695312 14.773438 175.695312 18.203125 175.527344 21.578125 Z M 175.527344 21.578125 " fill-opacity="1" fill-rule="nonzero"/></g><path fill="#e8ba7f" d="M 158.117188 14.519531 C 157.429688 14.496094 156.734375 14.46875 156.046875 14.535156 C 155.988281 14.539062 155.933594 14.53125 155.898438 14.46875 C 155.902344 13.917969 157.558594 14.039062 157.984375 13.976562 C 158.996094 13.789062 159.320312 14.609375 158.117188 14.519531 Z M 158.117188 14.519531 " fill-opacity="1" fill-rule="nonzero"/><path fill="#3f3756" d="M 158.351562 13.714844 C 158.777344 13.753906 159.554688 13.664062 159.835938 13.9375 C 159.585938 14.167969 158.917969 13.945312 158.578125 13.953125 C 157.796875 13.914062 156.957031 13.757812 156.199219 14.003906 C 155.589844 13.910156 158.253906 13.664062 158.351562 13.714844 Z M 158.351562 13.714844 " fill-opacity="1" fill-rule="nonzero"/><path fill="#e8ba7f" d="M 156.933594 15.082031 C 156.265625 15.066406 156.785156 14.621094 157.15625 14.828125 C 157.417969 14.949219 157.097656 15.125 156.933594 15.082031 Z M 156.933594 15.082031 " fill-opacity="1" fill-rule="nonzero"/><path fill="#3f3756" d="M 165.519531 5.964844 C 166.183594 6.601562 166.429688 7.554688 166.746094 8.390625 C 166.941406 9.476562 165.480469 6.128906 165.519531 5.964844 Z M 165.519531 5.964844 " fill-opacity="1" fill-rule="nonzero"/><path fill="#e1a965" d="M 167.382812 14.175781 C 169.410156 14.554688 169.113281 16.15625 168.523438 17.433594 L 171.703125 21.101562 L 172.820312 20.359375 L 169.804688 16.9375 C 170.335938 15.710938 169.949219 13.597656 167.953125 13.691406 C 167.535156 13.734375 167.382812 14.175781 167.382812 14.175781 Z M 167.382812 14.175781 " fill-opacity="1" fill-rule="nonzero"/><path fill="#d38c46" d="M 168.925781 13.925781 L 168.320312 14.421875 L 167.457031 14.078125 C 167.566406 13.632812 168.820312 13.851562 168.925781 13.925781 Z M 168.925781 13.925781 " fill-opacity="1" fill-rule="nonzero"/><path fill="#d38c46" d="M 171.867188 19.5 L 170.980469 20.097656 L 171.710938 20.949219 L 172.65625 20.359375 Z M 171.867188 19.5 " fill-opacity="1" fill-rule="nonzero"/><path fill="#3f3756" d="M 172.917969 20.269531 C 172.773438 19.808594 172.277344 19.527344 171.980469 19.152344 C 171.285156 18.421875 170.65625 17.636719 169.996094 16.878906 C 170.453125 15.566406 170.085938 13.4375 168.324219 13.433594 C 166.699219 13.347656 165.535156 15.210938 166.324219 16.640625 C 166.773438 17.707031 167.6875 17.667969 167.714844 18.074219 C 167.980469 19.695312 168.09375 21.347656 168.453125 22.945312 C 168.476562 23.472656 170.636719 21.855469 170.984375 21.746094 C 171.371094 21.433594 173 20.742188 172.917969 20.269531 Z M 168.40625 14.296875 C 168.152344 14.128906 167.855469 14.035156 167.546875 14.039062 C 169.144531 13.234375 170.308594 15.453125 169.609375 16.761719 C 169.382812 16.863281 169.171875 17.058594 168.933594 17.105469 C 169.453125 16.164062 169.371094 14.898438 168.40625 14.296875 Z M 172.476562 20.378906 C 171.480469 21.121094 171.867188 20.835938 171.085938 20.03125 C 170.367188 19.191406 169.683594 18.316406 168.933594 17.503906 C 168.882812 17.445312 168.898438 17.429688 168.957031 17.402344 C 169.128906 17.375 169.628906 16.933594 169.675781 17.019531 C 170.277344 17.949219 171.101562 18.703125 171.800781 19.554688 C 171.921875 19.722656 172.535156 20.234375 172.476562 20.378906 Z M 172.476562 20.378906 " fill-opacity="1" fill-rule="nonzero"/><g fill="#ff8d55" fill-opacity="0.4"><g transform="translate(42.016495, 13.826587)"><g><path d="M 7.195312 -8.582031 L 0.75 -8.582031 L 0.75 -6.980469 L 3.175781 -6.980469 L 3.175781 0 L 4.773438 0 L 4.773438 -6.980469 L 7.195312 -6.980469 Z M 7.195312 -8.582031 "/></g></g></g><g fill="#ff8d55" fill-opacity="0.4"><g transform="translate(49.963367, 13.826587)"><g><path d="M 5.84375 -8.515625 L 5.84375 -4.601562 L 2.359375 -4.601562 L 2.359375 -8.515625 L 0.75 -8.515625 L 0.75 0.0742188 L 2.359375 0.0742188 L 2.359375 -3.003906 L 5.84375 -3.003906 L 5.84375 0.0742188 L 7.445312 0.0742188 L 7.445312 -8.515625 Z M 5.84375 -8.515625 "/></g></g></g><g fill="#ff8d55" fill-opacity="0.4"><g transform="translate(58.156904, 13.826587)"><g><path d="M 5.726562 -6.992188 L 5.726562 -8.589844 L 0.75 -8.589844 L 0.75 0 L 5.726562 0 L 5.726562 -1.597656 L 2.359375 -1.597656 L 2.359375 -3.507812 L 4.363281 -3.507812 L 4.363281 -5.105469 L 2.359375 -5.105469 L 2.359375 -6.992188 Z M 5.726562 -6.992188 "/></g></g></g><g fill="#ff8d55" fill-opacity="0.4"><g transform="translate(64.634517, 13.826587)"><g/></g></g><g fill="#ff8d55" fill-opacity="0.4"><g transform="translate(67.851875, 13.826587)"><g><path d="M 7.445312 -6.125 C 7.445312 -7.484375 6.640625 -8.582031 4.441406 -8.582031 L 0.75 -8.582031 L 0.75 0 L 4.441406 0 C 6.703125 0 7.445312 -1.457031 7.445312 -2.808594 C 7.445312 -3.441406 7.273438 -4.023438 6.863281 -4.460938 C 7.28125 -4.890625 7.445312 -5.480469 7.445312 -6.125 Z M 2.359375 -6.980469 L 4.996094 -6.980469 C 5.503906 -6.980469 5.84375 -6.542969 5.84375 -6.125 C 5.84375 -5.757812 5.554688 -5.265625 4.996094 -5.265625 L 2.359375 -5.265625 Z M 4.835938 -1.609375 L 2.359375 -1.609375 L 2.359375 -3.667969 L 4.835938 -3.667969 C 5.332031 -3.667969 5.84375 -3.347656 5.84375 -2.636719 C 5.84375 -1.929688 5.308594 -1.609375 4.835938 -1.609375 Z M 4.835938 -1.609375 "/></g></g></g><g fill="#ff8d55" fill-opacity="0.4"><g transform="translate(76.045413, 13.826587)"><g><path d="M 7.453125 -5.363281 C 7.453125 -7.144531 6.640625 -8.582031 4.449219 -8.582031 L 0.75 -8.582031 L 0.75 0 L 2.359375 0 L 2.359375 -2.132812 L 4.449219 -2.132812 C 4.644531 -2.132812 4.828125 -2.144531 4.996094 -2.167969 L 5.769531 0 L 7.453125 0 L 6.476562 -2.746094 C 7.1875 -3.335938 7.453125 -4.289062 7.453125 -5.363281 Z M 2.359375 -3.742188 L 2.359375 -6.980469 L 4.449219 -6.980469 C 5.246094 -6.980469 5.460938 -6.714844 5.535156 -6.628906 C 5.738281 -6.371094 5.84375 -5.921875 5.84375 -5.363281 C 5.84375 -4.773438 5.738281 -4.324219 5.546875 -4.085938 C 5.363281 -3.851562 4.996094 -3.742188 4.449219 -3.742188 Z M 2.359375 -3.742188 "/></g></g></g><g fill="#ff8d55" fill-opacity="0.4"><g transform="translate(84.249673, 13.826587)"><g><path d="M 0.75 -8.582031 L 2.359375 -8.582031 L 2.359375 -0.03125 L 0.75 -0.03125 Z M 0.75 -8.582031 "/></g></g></g><g fill="#ff8d55" fill-opacity="0.4"><g transform="translate(87.359785, 13.826587)"><g><path d="M 5.84375 -8.582031 L 5.84375 -2.789062 L 2.507812 -8.582031 L 0.75 -8.582031 L 0.75 0 L 2.359375 0 L 2.359375 -5.375 L 5.449219 0 L 7.453125 0 L 7.453125 -8.582031 Z M 5.84375 -8.582031 "/></g></g></g><g fill="#ff8d55" fill-opacity="0.4"><g transform="translate(95.564045, 13.826587)"><g><path d="M 5.535156 0 L 7.453125 0 L 4.40625 -4.503906 L 7.359375 -8.582031 L 5.523438 -8.582031 L 2.359375 -4.226562 L 2.359375 -8.582031 L 0.75 -8.582031 L 0.75 0 L 2.359375 0 L 2.359375 -1.695312 L 3.421875 -3.164062 Z M 5.535156 0 "/></g></g></g><g fill="#e2a165" fill-opacity="1"><g transform="translate(42.642329, 13.586352)"><g><path d="M 7.195312 -8.582031 L 0.75 -8.582031 L 0.75 -6.980469 L 3.175781 -6.980469 L 3.175781 0 L 4.773438 0 L 4.773438 -6.980469 L 7.195312 -6.980469 Z M 7.195312 -8.582031 "/></g></g></g><g fill="#e2a165" fill-opacity="1"><g transform="translate(50.589202, 13.586352)"><g><path d="M 5.84375 -8.515625 L 5.84375 -4.601562 L 2.359375 -4.601562 L 2.359375 -8.515625 L 0.75 -8.515625 L 0.75 0.0742188 L 2.359375 0.0742188 L 2.359375 -3.003906 L 5.84375 -3.003906 L 5.84375 0.0742188 L 7.445312 0.0742188 L 7.445312 -8.515625 Z M 5.84375 -8.515625 "/></g></g></g><g fill="#e2a165" fill-opacity="1"><g transform="translate(58.782739, 13.586352)"><g><path d="M 5.726562 -6.992188 L 5.726562 -8.589844 L 0.75 -8.589844 L 0.75 0 L 5.726562 0 L 5.726562 -1.597656 L 2.359375 -1.597656 L 2.359375 -3.507812 L 4.363281 -3.507812 L 4.363281 -5.105469 L 2.359375 -5.105469 L 2.359375 -6.992188 Z M 5.726562 -6.992188 "/></g></g></g><g fill="#e2a165" fill-opacity="1"><g transform="translate(65.260352, 13.586352)"><g/></g></g><g fill="#e2a165" fill-opacity="1"><g transform="translate(68.47771, 13.586352)"><g><path d="M 7.445312 -6.125 C 7.445312 -7.484375 6.640625 -8.582031 4.441406 -8.582031 L 0.75 -8.582031 L 0.75 0 L 4.441406 0 C 6.703125 0 7.445312 -1.457031 7.445312 -2.808594 C 7.445312 -3.441406 7.273438 -4.023438 6.863281 -4.460938 C 7.28125 -4.890625 7.445312 -5.480469 7.445312 -6.125 Z M 2.359375 -6.980469 L 4.996094 -6.980469 C 5.503906 -6.980469 5.84375 -6.542969 5.84375 -6.125 C 5.84375 -5.757812 5.554688 -5.265625 4.996094 -5.265625 L 2.359375 -5.265625 Z M 4.835938 -1.609375 L 2.359375 -1.609375 L 2.359375 -3.667969 L 4.835938 -3.667969 C 5.332031 -3.667969 5.84375 -3.347656 5.84375 -2.636719 C 5.84375 -1.929688 5.308594 -1.609375 4.835938 -1.609375 Z M 4.835938 -1.609375 "/></g></g></g><g fill="#e2a165" fill-opacity="1"><g transform="translate(76.671247, 13.586352)"><g><path d="M 7.453125 -5.363281 C 7.453125 -7.144531 6.640625 -8.582031 4.449219 -8.582031 L 0.75 -8.582031 L 0.75 0 L 2.359375 0 L 2.359375 -2.132812 L 4.449219 -2.132812 C 4.644531 -2.132812 4.828125 -2.144531 4.996094 -2.167969 L 5.769531 0 L 7.453125 0 L 6.476562 -2.746094 C 7.1875 -3.335938 7.453125 -4.289062 7.453125 -5.363281 Z M 2.359375 -3.742188 L 2.359375 -6.980469 L 4.449219 -6.980469 C 5.246094 -6.980469 5.460938 -6.714844 5.535156 -6.628906 C 5.738281 -6.371094 5.84375 -5.921875 5.84375 -5.363281 C 5.84375 -4.773438 5.738281 -4.324219 5.546875 -4.085938 C 5.363281 -3.851562 4.996094 -3.742188 4.449219 -3.742188 Z M 2.359375 -3.742188 "/></g></g></g><g fill="#e2a165" fill-opacity="1"><g transform="translate(84.875507, 13.586352)"><g><path d="M 0.75 -8.582031 L 2.359375 -8.582031 L 2.359375 -0.03125 L 0.75 -0.03125 Z M 0.75 -8.582031 "/></g></g></g><g fill="#e2a165" fill-opacity="1"><g transform="translate(87.98562, 13.586352)"><g><path d="M 5.84375 -8.582031 L 5.84375 -2.789062 L 2.507812 -8.582031 L 0.75 -8.582031 L 0.75 0 L 2.359375 0 L 2.359375 -5.375 L 5.449219 0 L 7.453125 0 L 7.453125 -8.582031 Z M 5.84375 -8.582031 "/></g></g></g><g fill="#e2a165" fill-opacity="1"><g transform="translate(96.18988, 13.586352)"><g><path d="M 5.535156 0 L 7.453125 0 L 4.40625 -4.503906 L 7.359375 -8.582031 L 5.523438 -8.582031 L 2.359375 -4.226562 L 2.359375 -8.582031 L 0.75 -8.582031 L 0.75 0 L 2.359375 0 L 2.359375 -1.695312 L 3.421875 -3.164062 Z M 5.535156 0 "/></g></g></g><g fill="#ffffff" fill-opacity="0.4"><g transform="translate(43.023467, 24.270421)"><g><path d="M 5.726562 -6.992188 L 5.726562 -8.589844 L 0.75 -8.589844 L 0.75 0 L 5.726562 0 L 5.726562 -1.597656 L 2.359375 -1.597656 L 2.359375 -3.507812 L 4.363281 -3.507812 L 4.363281 -5.105469 L 2.359375 -5.105469 L 2.359375 -6.992188 Z M 5.726562 -6.992188 "/></g></g></g><g fill="#ffffff" fill-opacity="0.4"><g transform="translate(49.50108, 24.270421)"><g><path d="M 4.3125 0.105469 L 4.503906 0.105469 C 6.347656 0.0976562 7.402344 -1.105469 7.476562 -2.296875 C 7.5625 -3.539062 6.617188 -4.933594 4.34375 -5.222656 L 4.324219 -5.222656 C 3.496094 -5.320312 2.636719 -5.726562 2.679688 -6.328125 C 2.714844 -6.757812 3.355469 -7.152344 4.527344 -7.101562 L 4.558594 -7.101562 C 5.203125 -7.101562 5.972656 -6.789062 6.371094 -6.5 L 7.292969 -7.785156 C 6.683594 -8.226562 5.609375 -8.675781 4.578125 -8.675781 C 2.304688 -8.792969 1.203125 -7.636719 1.105469 -6.457031 C 1.050781 -5.769531 1.339844 -5.09375 1.898438 -4.578125 C 2.445312 -4.074219 3.226562 -3.753906 4.152344 -3.65625 C 5.40625 -3.484375 5.929688 -2.90625 5.898438 -2.402344 C 5.867188 -1.941406 5.375 -1.480469 4.484375 -1.480469 L 4.429688 -1.480469 C 4.417969 -1.480469 3.25 -1.414062 2.53125 -2.003906 C 2.347656 -2.144531 2.199219 -2.316406 2.058594 -2.519531 L 0.75 -1.628906 C 0.964844 -1.308594 1.234375 -1.019531 1.535156 -0.773438 C 2.507812 0.0195312 3.796875 0.105469 4.3125 0.105469 Z M 4.3125 0.105469 "/></g></g></g><g fill="#ffffff" fill-opacity="0.4"><g transform="translate(57.72679, 24.270421)"><g><path d="M 7.035156 -2.390625 C 6.585938 -1.867188 5.921875 -1.542969 5.136719 -1.542969 C 3.625 -1.542969 2.550781 -2.777344 2.550781 -4.289062 C 2.550781 -5.800781 3.625 -7.035156 5.136719 -7.035156 C 5.921875 -7.035156 6.585938 -6.714844 7.035156 -6.1875 L 8.246094 -7.390625 C 7.453125 -8.183594 6.347656 -8.675781 5.136719 -8.675781 C 2.714844 -8.675781 0.75 -6.714844 0.75 -4.289062 C 0.75 -1.867188 2.714844 0.0976562 5.136719 0.0976562 C 6.347656 0.0976562 7.453125 -0.398438 8.246094 -1.191406 Z M 7.035156 -2.390625 "/></g></g></g><g fill="#ffffff" fill-opacity="0.4"><g transform="translate(66.724666, 24.270421)"><g><path d="M 5.8125 0 L 7.484375 0 L 4.964844 -8.558594 L 4.964844 -8.582031 L 3.28125 -8.582031 L 0.75 0 L 2.433594 0 L 3.066406 -2.132812 L 5.179688 -2.132812 Z M 3.539062 -3.734375 L 4.128906 -5.726562 L 4.707031 -3.734375 Z M 3.539062 -3.734375 "/></g></g></g><g fill="#ffffff" fill-opacity="0.4"><g transform="translate(74.9611, 24.270421)"><g><path d="M 4.449219 -8.582031 L 0.75 -8.582031 L 0.75 0 L 2.359375 0 L 2.359375 -2.132812 L 4.449219 -2.132812 C 6.714844 -2.132812 7.453125 -3.582031 7.453125 -5.363281 C 7.453125 -7.144531 6.640625 -8.582031 4.449219 -8.582031 Z M 5.546875 -4.085938 C 5.363281 -3.851562 4.996094 -3.742188 4.449219 -3.742188 L 2.359375 -3.742188 L 2.359375 -6.980469 L 4.449219 -6.980469 C 5.246094 -6.980469 5.460938 -6.714844 5.535156 -6.628906 C 5.738281 -6.371094 5.84375 -5.921875 5.84375 -5.363281 C 5.84375 -4.773438 5.738281 -4.324219 5.546875 -4.085938 Z M 5.546875 -4.085938 "/></g></g></g><g fill="#ffffff" fill-opacity="0.4"><g transform="translate(83.16536, 24.270421)"><g><path d="M 5.726562 -6.992188 L 5.726562 -8.589844 L 0.75 -8.589844 L 0.75 0 L 5.726562 0 L 5.726562 -1.597656 L 2.359375 -1.597656 L 2.359375 -3.507812 L 4.363281 -3.507812 L 4.363281 -5.105469 L 2.359375 -5.105469 L 2.359375 -6.992188 Z M 5.726562 -6.992188 "/></g></g></g><g fill="#ffffff" fill-opacity="0.4"><g transform="translate(89.642973, 24.270421)"><g><path d="M 7.453125 -5.363281 C 7.453125 -7.144531 6.640625 -8.582031 4.449219 -8.582031 L 0.75 -8.582031 L 0.75 0 L 2.359375 0 L 2.359375 -2.132812 L 4.449219 -2.132812 C 4.644531 -2.132812 4.828125 -2.144531 4.996094 -2.167969 L 5.769531 0 L 7.453125 0 L 6.476562 -2.746094 C 7.1875 -3.335938 7.453125 -4.289062 7.453125 -5.363281 Z M 2.359375 -3.742188 L 2.359375 -6.980469 L 4.449219 -6.980469 C 5.246094 -6.980469 5.460938 -6.714844 5.535156 -6.628906 C 5.738281 -6.371094 5.84375 -5.921875 5.84375 -5.363281 C 5.84375 -4.773438 5.738281 -4.324219 5.546875 -4.085938 C 5.363281 -3.851562 4.996094 -3.742188 4.449219 -3.742188 Z M 2.359375 -3.742188 "/></g></g></g><g fill="#ffffff" fill-opacity="0.4"><g transform="translate(97.847233, 24.270421)"><g><path d="M 4.761719 -8.6875 C 2.339844 -8.6875 0.375 -6.726562 0.375 -4.300781 C 0.375 -1.875 2.339844 0.0859375 4.761719 0.0859375 C 7.1875 0.0859375 9.148438 -1.875 9.148438 -4.300781 C 9.148438 -6.726562 7.1875 -8.6875 4.761719 -8.6875 Z M 4.761719 -7.046875 C 6.285156 -7.046875 7.359375 -5.8125 7.359375 -4.300781 C 7.359375 -2.789062 6.285156 -1.554688 4.761719 -1.554688 C 3.25 -1.554688 2.175781 -2.789062 2.175781 -4.300781 C 2.175781 -5.8125 3.25 -7.046875 4.761719 -7.046875 Z M 4.761719 -7.046875 "/></g></g></g><g fill="#ffffff" fill-opacity="0.4"><g transform="translate(107.370613, 24.270421)"><g><path d="M 4.761719 -8.6875 C 2.339844 -8.6875 0.375 -6.726562 0.375 -4.300781 C 0.375 -1.875 2.339844 0.0859375 4.761719 0.0859375 C 7.1875 0.0859375 9.148438 -1.875 9.148438 -4.300781 C 9.148438 -6.726562 7.1875 -8.6875 4.761719 -8.6875 Z M 4.761719 -7.046875 C 6.285156 -7.046875 7.359375 -5.8125 7.359375 -4.300781 C 7.359375 -2.789062 6.285156 -1.554688 4.761719 -1.554688 C 3.25 -1.554688 2.175781 -2.789062 2.175781 -4.300781 C 2.175781 -5.8125 3.25 -7.046875 4.761719 -7.046875 Z M 4.761719 -7.046875 "/></g></g></g><g fill="#ffffff" fill-opacity="0.4"><g transform="translate(116.89399, 24.270421)"><g><path d="M 7.894531 -8.582031 L 6.136719 -8.582031 L 4.324219 -4.257812 L 2.519531 -8.582031 L 0.75 -8.582031 L 0.75 0 L 2.359375 0 L 2.359375 -4.742188 L 3.441406 -2.15625 L 5.203125 -2.15625 L 6.296875 -4.761719 L 6.296875 0 L 7.894531 0 Z M 7.894531 -8.582031 "/></g></g></g><g fill="#ffffff" fill-opacity="0.4"><g transform="translate(125.537955, 24.270421)"><g><path d="M 4.3125 0.105469 L 4.503906 0.105469 C 6.347656 0.0976562 7.402344 -1.105469 7.476562 -2.296875 C 7.5625 -3.539062 6.617188 -4.933594 4.34375 -5.222656 L 4.324219 -5.222656 C 3.496094 -5.320312 2.636719 -5.726562 2.679688 -6.328125 C 2.714844 -6.757812 3.355469 -7.152344 4.527344 -7.101562 L 4.558594 -7.101562 C 5.203125 -7.101562 5.972656 -6.789062 6.371094 -6.5 L 7.292969 -7.785156 C 6.683594 -8.226562 5.609375 -8.675781 4.578125 -8.675781 C 2.304688 -8.792969 1.203125 -7.636719 1.105469 -6.457031 C 1.050781 -5.769531 1.339844 -5.09375 1.898438 -4.578125 C 2.445312 -4.074219 3.226562 -3.753906 4.152344 -3.65625 C 5.40625 -3.484375 5.929688 -2.90625 5.898438 -2.402344 C 5.867188 -1.941406 5.375 -1.480469 4.484375 -1.480469 L 4.429688 -1.480469 C 4.417969 -1.480469 3.25 -1.414062 2.53125 -2.003906 C 2.347656 -2.144531 2.199219 -2.316406 2.058594 -2.519531 L 0.75 -1.628906 C 0.964844 -1.308594 1.234375 -1.019531 1.535156 -0.773438 C 2.507812 0.0195312 3.796875 0.105469 4.3125 0.105469 Z M 4.3125 0.105469 "/></g></g></g><g fill="#000000" fill-opacity="1"><g transform="translate(43.649302, 24.030186)"><g><path d="M 5.726562 -6.992188 L 5.726562 -8.589844 L 0.75 -8.589844 L 0.75 0 L 5.726562 0 L 5.726562 -1.597656 L 2.359375 -1.597656 L 2.359375 -3.507812 L 4.363281 -3.507812 L 4.363281 -5.105469 L 2.359375 -5.105469 L 2.359375 -6.992188 Z M 5.726562 -6.992188 "/></g></g></g><g fill="#000000" fill-opacity="1"><g transform="translate(50.126914, 24.030186)"><g><path d="M 4.3125 0.105469 L 4.503906 0.105469 C 6.347656 0.0976562 7.402344 -1.105469 7.476562 -2.296875 C 7.5625 -3.539062 6.617188 -4.933594 4.34375 -5.222656 L 4.324219 -5.222656 C 3.496094 -5.320312 2.636719 -5.726562 2.679688 -6.328125 C 2.714844 -6.757812 3.355469 -7.152344 4.527344 -7.101562 L 4.558594 -7.101562 C 5.203125 -7.101562 5.972656 -6.789062 6.371094 -6.5 L 7.292969 -7.785156 C 6.683594 -8.226562 5.609375 -8.675781 4.578125 -8.675781 C 2.304688 -8.792969 1.203125 -7.636719 1.105469 -6.457031 C 1.050781 -5.769531 1.339844 -5.09375 1.898438 -4.578125 C 2.445312 -4.074219 3.226562 -3.753906 4.152344 -3.65625 C 5.40625 -3.484375 5.929688 -2.90625 5.898438 -2.402344 C 5.867188 -1.941406 5.375 -1.480469 4.484375 -1.480469 L 4.429688 -1.480469 C 4.417969 -1.480469 3.25 -1.414062 2.53125 -2.003906 C 2.347656 -2.144531 2.199219 -2.316406 2.058594 -2.519531 L 0.75 -1.628906 C 0.964844 -1.308594 1.234375 -1.019531 1.535156 -0.773438 C 2.507812 0.0195312 3.796875 0.105469 4.3125 0.105469 Z M 4.3125 0.105469 "/></g></g></g><g fill="#000000" fill-opacity="1"><g transform="translate(58.352625, 24.030186)"><g><path d="M 7.035156 -2.390625 C 6.585938 -1.867188 5.921875 -1.542969 5.136719 -1.542969 C 3.625 -1.542969 2.550781 -2.777344 2.550781 -4.289062 C 2.550781 -5.800781 3.625 -7.035156 5.136719 -7.035156 C 5.921875 -7.035156 6.585938 -6.714844 7.035156 -6.1875 L 8.246094 -7.390625 C 7.453125 -8.183594 6.347656 -8.675781 5.136719 -8.675781 C 2.714844 -8.675781 0.75 -6.714844 0.75 -4.289062 C 0.75 -1.867188 2.714844 0.0976562 5.136719 0.0976562 C 6.347656 0.0976562 7.453125 -0.398438 8.246094 -1.191406 Z M 7.035156 -2.390625 "/></g></g></g><g fill="#000000" fill-opacity="1"><g transform="translate(67.3505, 24.030186)"><g><path d="M 5.8125 0 L 7.484375 0 L 4.964844 -8.558594 L 4.964844 -8.582031 L 3.28125 -8.582031 L 0.75 0 L 2.433594 0 L 3.066406 -2.132812 L 5.179688 -2.132812 Z M 3.539062 -3.734375 L 4.128906 -5.726562 L 4.707031 -3.734375 Z M 3.539062 -3.734375 "/></g></g></g><g fill="#000000" fill-opacity="1"><g transform="translate(75.586935, 24.030186)"><g><path d="M 4.449219 -8.582031 L 0.75 -8.582031 L 0.75 0 L 2.359375 0 L 2.359375 -2.132812 L 4.449219 -2.132812 C 6.714844 -2.132812 7.453125 -3.582031 7.453125 -5.363281 C 7.453125 -7.144531 6.640625 -8.582031 4.449219 -8.582031 Z M 5.546875 -4.085938 C 5.363281 -3.851562 4.996094 -3.742188 4.449219 -3.742188 L 2.359375 -3.742188 L 2.359375 -6.980469 L 4.449219 -6.980469 C 5.246094 -6.980469 5.460938 -6.714844 5.535156 -6.628906 C 5.738281 -6.371094 5.84375 -5.921875 5.84375 -5.363281 C 5.84375 -4.773438 5.738281 -4.324219 5.546875 -4.085938 Z M 5.546875 -4.085938 "/></g></g></g><g fill="#000000" fill-opacity="1"><g transform="translate(83.791195, 24.030186)"><g><path d="M 5.726562 -6.992188 L 5.726562 -8.589844 L 0.75 -8.589844 L 0.75 0 L 5.726562 0 L 5.726562 -1.597656 L 2.359375 -1.597656 L 2.359375 -3.507812 L 4.363281 -3.507812 L 4.363281 -5.105469 L 2.359375 -5.105469 L 2.359375 -6.992188 Z M 5.726562 -6.992188 "/></g></g></g><g fill="#000000" fill-opacity="1"><g transform="translate(90.268808, 24.030186)"><g><path d="M 7.453125 -5.363281 C 7.453125 -7.144531 6.640625 -8.582031 4.449219 -8.582031 L 0.75 -8.582031 L 0.75 0 L 2.359375 0 L 2.359375 -2.132812 L 4.449219 -2.132812 C 4.644531 -2.132812 4.828125 -2.144531 4.996094 -2.167969 L 5.769531 0 L 7.453125 0 L 6.476562 -2.746094 C 7.1875 -3.335938 7.453125 -4.289062 7.453125 -5.363281 Z M 2.359375 -3.742188 L 2.359375 -6.980469 L 4.449219 -6.980469 C 5.246094 -6.980469 5.460938 -6.714844 5.535156 -6.628906 C 5.738281 -6.371094 5.84375 -5.921875 5.84375 -5.363281 C 5.84375 -4.773438 5.738281 -4.324219 5.546875 -4.085938 C 5.363281 -3.851562 4.996094 -3.742188 4.449219 -3.742188 Z M 2.359375 -3.742188 "/></g></g></g><g fill="#000000" fill-opacity="1"><g transform="translate(98.473068, 24.030186)"><g><path d="M 4.761719 -8.6875 C 2.339844 -8.6875 0.375 -6.726562 0.375 -4.300781 C 0.375 -1.875 2.339844 0.0859375 4.761719 0.0859375 C 7.1875 0.0859375 9.148438 -1.875 9.148438 -4.300781 C 9.148438 -6.726562 7.1875 -8.6875 4.761719 -8.6875 Z M 4.761719 -7.046875 C 6.285156 -7.046875 7.359375 -5.8125 7.359375 -4.300781 C 7.359375 -2.789062 6.285156 -1.554688 4.761719 -1.554688 C 3.25 -1.554688 2.175781 -2.789062 2.175781 -4.300781 C 2.175781 -5.8125 3.25 -7.046875 4.761719 -7.046875 Z M 4.761719 -7.046875 "/></g></g></g><g fill="#000000" fill-opacity="1"><g transform="translate(107.996448, 24.030186)"><g><path d="M 4.761719 -8.6875 C 2.339844 -8.6875 0.375 -6.726562 0.375 -4.300781 C 0.375 -1.875 2.339844 0.0859375 4.761719 0.0859375 C 7.1875 0.0859375 9.148438 -1.875 9.148438 -4.300781 C 9.148438 -6.726562 7.1875 -8.6875 4.761719 -8.6875 Z M 4.761719 -7.046875 C 6.285156 -7.046875 7.359375 -5.8125 7.359375 -4.300781 C 7.359375 -2.789062 6.285156 -1.554688 4.761719 -1.554688 C 3.25 -1.554688 2.175781 -2.789062 2.175781 -4.300781 C 2.175781 -5.8125 3.25 -7.046875 4.761719 -7.046875 Z M 4.761719 -7.046875 "/></g></g></g><g fill="#000000" fill-opacity="1"><g transform="translate(117.519824, 24.030186)"><g><path d="M 7.894531 -8.582031 L 6.136719 -8.582031 L 4.324219 -4.257812 L 2.519531 -8.582031 L 0.75 -8.582031 L 0.75 0 L 2.359375 0 L 2.359375 -4.742188 L 3.441406 -2.15625 L 5.203125 -2.15625 L 6.296875 -4.761719 L 6.296875 0 L 7.894531 0 Z M 7.894531 -8.582031 "/></g></g></g><g fill="#000000" fill-opacity="1"><g transform="translate(126.16379, 24.030186)"><g><path d="M 4.3125 0.105469 L 4.503906 0.105469 C 6.347656 0.0976562 7.402344 -1.105469 7.476562 -2.296875 C 7.5625 -3.539062 6.617188 -4.933594 4.34375 -5.222656 L 4.324219 -5.222656 C 3.496094 -5.320312 2.636719 -5.726562 2.679688 -6.328125 C 2.714844 -6.757812 3.355469 -7.152344 4.527344 -7.101562 L 4.558594 -7.101562 C 5.203125 -7.101562 5.972656 -6.789062 6.371094 -6.5 L 7.292969 -7.785156 C 6.683594 -8.226562 5.609375 -8.675781 4.578125 -8.675781 C 2.304688 -8.792969 1.203125 -7.636719 1.105469 -6.457031 C 1.050781 -5.769531 1.339844 -5.09375 1.898438 -4.578125 C 2.445312 -4.074219 3.226562 -3.753906 4.152344 -3.65625 C 5.40625 -3.484375 5.929688 -2.90625 5.898438 -2.402344 C 5.867188 -1.941406 5.375 -1.480469 4.484375 -1.480469 L 4.429688 -1.480469 C 4.417969 -1.480469 3.25 -1.414062 2.53125 -2.003906 C 2.347656 -2.144531 2.199219 -2.316406 2.058594 -2.519531 L 0.75 -1.628906 C 0.964844 -1.308594 1.234375 -1.019531 1.535156 -0.773438 C 2.507812 0.0195312 3.796875 0.105469 4.3125 0.105469 Z M 4.3125 0.105469 "/></g></g></g></svg>