<svg xmlns="http://www.w3.org/2000/svg" xmlns:xlink="http://www.w3.org/1999/xlink" width="50" zoomAndPan="magnify" viewBox="0 0 37.5 37.499999" height="50" preserveAspectRatio="xMidYMid meet" version="1.0"><defs><clipPath id="7f88e1bb94"><path d="M 0 0 L 37.007812 0 L 37.007812 37.007812 L 0 37.007812 Z M 0 0 " clip-rule="nonzero"/></clipPath><clipPath id="48dbc09202"><path d="M 18.75 0 C 8.394531 0 0 8.394531 0 18.75 C 0 29.105469 8.394531 37.5 18.75 37.5 C 29.105469 37.5 37.5 29.105469 37.5 18.75 C 37.5 8.394531 29.105469 0 18.75 0 Z M 18.75 0 " clip-rule="nonzero"/></clipPath><clipPath id="01d5a6b157"><path d="M 5 5.003906 L 32.726562 5.003906 L 32.726562 32.753906 L 5 32.753906 Z M 5 5.003906 " clip-rule="nonzero"/></clipPath></defs><g clip-path="url(#7f88e1bb94)"><g clip-path="url(#48dbc09202)"><path fill="#ffffff" d="M 0 0 L 37.5 0 L 37.5 37.5 L 0 37.5 Z M 0 0 " fill-opacity="1" fill-rule="nonzero"/><path stroke-linecap="butt" transform="matrix(0.75, 0, 0, 0.75, 0.0000005, 0)" fill="none" stroke-linejoin="miter" d="M 25.000002 0 C 11.192709 0 -0.000000666667 11.19271 -0.000000666667 25.000003 C -0.000000666667 38.807296 11.192709 50.000006 25.000002 50.000006 C 38.807296 50.000006 50.000005 38.807296 50.000005 25.000003 C 50.000005 11.19271 38.807296 0 25.000002 0 Z M 25.000002 0 " stroke="#000000" stroke-width="98" stroke-opacity="1" stroke-miterlimit="4"/></g></g><g clip-path="url(#01d5a6b157)"><path fill="#000000" d="M 32.542969 31.960938 C 32.722656 32.140625 32.722656 32.433594 32.542969 32.613281 C 32.453125 32.703125 32.335938 32.75 32.21875 32.75 C 32.101562 32.75 31.980469 32.703125 31.890625 32.613281 L 18.851562 19.550781 L 5.8125 32.613281 C 5.722656 32.703125 5.601562 32.75 5.484375 32.75 C 5.367188 32.75 5.25 32.703125 5.160156 32.613281 C 4.976562 32.433594 4.976562 32.140625 5.160156 31.960938 L 18.199219 18.898438 L 5.160156 5.835938 C 4.976562 5.65625 4.976562 5.363281 5.160156 5.183594 C 5.339844 5 5.632812 5 5.8125 5.183594 L 18.851562 18.246094 L 31.890625 5.183594 C 32.070312 5 32.363281 5 32.542969 5.183594 C 32.722656 5.363281 32.722656 5.65625 32.542969 5.835938 L 19.503906 18.898438 Z M 32.542969 31.960938 " fill-opacity="1" fill-rule="nonzero"/></g></svg>