<svg xmlns="http://www.w3.org/2000/svg" xmlns:xlink="http://www.w3.org/1999/xlink" width="500" zoomAndPan="magnify" viewBox="0 0 375 374.999991" height="500" preserveAspectRatio="xMidYMid meet" version="1.0"><defs><clipPath id="51eaf092a8"><path d="M 154.589844 0 L 375 0 L 375 175.875 L 154.589844 175.875 Z M 154.589844 0 " clip-rule="nonzero"/></clipPath><clipPath id="b58db57305"><path d="M 234.441406 96.300781 L 375 96.300781 L 375 193.578125 L 234.441406 193.578125 Z M 234.441406 96.300781 " clip-rule="nonzero"/></clipPath><clipPath id="12e28d0f2b"><path d="M 154.589844 144.941406 L 234.441406 144.941406 L 234.441406 193.804688 L 154.589844 193.804688 Z M 154.589844 144.941406 " clip-rule="nonzero"/></clipPath><clipPath id="58baafa57a"><path d="M 0 0 L 154.589844 0 L 154.589844 193.578125 L 0 193.578125 Z M 0 0 " clip-rule="nonzero"/></clipPath><clipPath id="8c453877aa"><path d="M 0 193.804688 L 154.589844 193.804688 L 154.589844 246.5625 L 0 246.5625 Z M 0 193.804688 " clip-rule="nonzero"/></clipPath><clipPath id="3ca544dd5e"><path d="M 0 246.5625 L 202.445312 246.5625 L 202.445312 375 L 0 375 Z M 0 246.5625 " clip-rule="nonzero"/></clipPath><clipPath id="d713286e1d"><path d="M 202.167969 211.878906 L 330.605469 211.878906 L 330.605469 374.984375 L 202.167969 374.984375 Z M 202.167969 211.878906 " clip-rule="nonzero"/></clipPath><clipPath id="a7e52dbc7e"><path d="M 250.578125 193.578125 L 330.605469 193.578125 L 330.605469 246.546875 L 250.578125 246.546875 Z M 250.578125 193.578125 " clip-rule="nonzero"/></clipPath><clipPath id="8b6effa043"><path d="M 154.589844 211.878906 L 202.445312 211.878906 L 202.445312 246.953125 L 154.589844 246.953125 Z M 154.589844 211.878906 " clip-rule="nonzero"/></clipPath></defs><g clip-path="url(#51eaf092a8)"><path fill="#e4b166" d="M 154.589844 0 L 375 0 L 375 175.875 L 154.589844 175.875 Z M 154.589844 0 " fill-opacity="1" fill-rule="nonzero"/></g><g clip-path="url(#b58db57305)"><path fill="#e4b166" d="M 234.441406 96.300781 L 375 96.300781 L 375 193.578125 L 234.441406 193.578125 Z M 234.441406 96.300781 " fill-opacity="1" fill-rule="nonzero"/></g><g clip-path="url(#12e28d0f2b)"><path fill="#a6a6a6" d="M 154.589844 144.941406 L 234.441406 144.941406 L 234.441406 193.804688 L 154.589844 193.804688 Z M 154.589844 144.941406 " fill-opacity="1" fill-rule="nonzero"/></g><g clip-path="url(#58baafa57a)"><path fill="#b0ff92" d="M 0 0 L 154.589844 0 L 154.589844 193.578125 L 0 193.578125 Z M 0 0 " fill-opacity="1" fill-rule="nonzero"/></g><g clip-path="url(#8c453877aa)"><path fill="#ffbd59" d="M 0 193.804688 L 154.589844 193.804688 L 154.589844 246.5625 L 0 246.5625 Z M 0 193.804688 " fill-opacity="1" fill-rule="nonzero"/></g><g clip-path="url(#3ca544dd5e)"><path fill="#545454" d="M 0 246.5625 L 202.445312 246.5625 L 202.445312 375 L 0 375 Z M 0 246.5625 " fill-opacity="1" fill-rule="nonzero"/></g><g clip-path="url(#d713286e1d)"><path fill="#a09be7" d="M 202.167969 211.878906 L 330.605469 211.878906 L 330.605469 374.984375 L 202.167969 374.984375 Z M 202.167969 211.878906 " fill-opacity="1" fill-rule="nonzero"/></g><g clip-path="url(#a7e52dbc7e)"><path fill="#a09be7" d="M 250.578125 193.578125 L 330.605469 193.578125 L 330.605469 246.546875 L 250.578125 246.546875 Z M 250.578125 193.578125 " fill-opacity="1" fill-rule="nonzero"/></g><g clip-path="url(#8b6effa043)"><path fill="#545454" d="M 154.589844 211.878906 L 202.445312 211.878906 L 202.445312 246.953125 L 154.589844 246.953125 Z M 154.589844 211.878906 " fill-opacity="1" fill-rule="nonzero"/></g></svg>